<svg width="17" height="20" viewBox="0 0 17 20" fill="none" xmlns="http://www.w3.org/2000/svg">
<path d="M1.80775 19.5576C1.30258 19.5576 0.875 19.3826 0.525 19.0326C0.175 18.6826 0 18.255 0 17.7499V4.36538C0 3.86022 0.175 3.43263 0.525 3.08263C0.875 2.73263 1.30258 2.55763 1.80775 2.55763H3.19225V0.442383H4.73075V2.55763H12.3077V0.442383H13.8077V2.55763H15.1923C15.6974 2.55763 16.125 2.73263 16.475 3.08263C16.825 3.43263 17 3.86022 17 4.36538V17.7499C17 18.255 16.825 18.6826 16.475 19.0326C16.125 19.3826 15.6974 19.5576 15.1923 19.5576H1.80775ZM1.80775 18.0576H15.1923C15.2692 18.0576 15.3398 18.0256 15.4038 17.9614C15.4679 17.8974 15.5 17.8269 15.5 17.7499V8.36538H1.5V17.7499C1.5 17.8269 1.53208 17.8974 1.59625 17.9614C1.66025 18.0256 1.73075 18.0576 1.80775 18.0576ZM1.5 6.86538H15.5V4.36538C15.5 4.28838 15.4679 4.21788 15.4038 4.15388C15.3398 4.08972 15.2692 4.05763 15.1923 4.05763H1.80775C1.73075 4.05763 1.66025 4.08972 1.59625 4.15388C1.53208 4.21788 1.5 4.28838 1.5 4.36538V6.86538ZM8.5 12.1346C8.25517 12.1346 8.0465 12.0484 7.874 11.8759C7.70167 11.7035 7.6155 11.4949 7.6155 11.2499C7.6155 11.005 7.70167 10.7964 7.874 10.6239C8.0465 10.4515 8.25517 10.3654 8.5 10.3654C8.74483 10.3654 8.9535 10.4515 9.126 10.6239C9.29833 10.7964 9.3845 11.005 9.3845 11.2499C9.3845 11.4949 9.29833 11.7035 9.126 11.8759C8.9535 12.0484 8.74483 12.1346 8.5 12.1346ZM4.5 12.1346C4.25517 12.1346 4.0465 12.0484 3.874 11.8759C3.70167 11.7035 3.6155 11.4949 3.6155 11.2499C3.6155 11.005 3.70167 10.7964 3.874 10.6239C4.0465 10.4515 4.25517 10.3654 4.5 10.3654C4.74483 10.3654 4.9535 10.4515 5.126 10.6239C5.29833 10.7964 5.3845 11.005 5.3845 11.2499C5.3845 11.4949 5.29833 11.7035 5.126 11.8759C4.9535 12.0484 4.74483 12.1346 4.5 12.1346ZM12.5 12.1346C12.2552 12.1346 12.0465 12.0484 11.874 11.8759C11.7017 11.7035 11.6155 11.4949 11.6155 11.2499C11.6155 11.005 11.7017 10.7964 11.874 10.6239C12.0465 10.4515 12.2552 10.3654 12.5 10.3654C12.7448 10.3654 12.9535 10.4515 13.126 10.6239C13.2983 10.7964 13.3845 11.005 13.3845 11.2499C13.3845 11.4949 13.2983 11.7035 13.126 11.8759C12.9535 12.0484 12.7448 12.1346 12.5 12.1346ZM8.5 16.0576C8.25517 16.0576 8.0465 15.9714 7.874 15.7989C7.70167 15.6265 7.6155 15.418 7.6155 15.1731C7.6155 14.9281 7.70167 14.7195 7.874 14.5471C8.0465 14.3746 8.25517 14.2884 8.5 14.2884C8.74483 14.2884 8.9535 14.3746 9.126 14.5471C9.29833 14.7195 9.3845 14.9281 9.3845 15.1731C9.3845 15.418 9.29833 15.6265 9.126 15.7989C8.9535 15.9714 8.74483 16.0576 8.5 16.0576ZM4.5 16.0576C4.25517 16.0576 4.0465 15.9714 3.874 15.7989C3.70167 15.6265 3.6155 15.418 3.6155 15.1731C3.6155 14.9281 3.70167 14.7195 3.874 14.5471C4.0465 14.3746 4.25517 14.2884 4.5 14.2884C4.74483 14.2884 4.9535 14.3746 5.126 14.5471C5.29833 14.7195 5.3845 14.9281 5.3845 15.1731C5.3845 15.418 5.29833 15.6265 5.126 15.7989C4.9535 15.9714 4.74483 16.0576 4.5 16.0576ZM12.5 16.0576C12.2552 16.0576 12.0465 15.9714 11.874 15.7989C11.7017 15.6265 11.6155 15.418 11.6155 15.1731C11.6155 14.9281 11.7017 14.7195 11.874 14.5471C12.0465 14.3746 12.2552 14.2884 12.5 14.2884C12.7448 14.2884 12.9535 14.3746 13.126 14.5471C13.2983 14.7195 13.3845 14.9281 13.3845 15.1731C13.3845 15.418 13.2983 15.6265 13.126 15.7989C12.9535 15.9714 12.7448 16.0576 12.5 16.0576Z" fill="#554D4D"/>
</svg>
