<svg width="20" height="15" viewBox="0 0 20 15" fill="none" xmlns="http://www.w3.org/2000/svg">
<path d="M2.30775 15C1.80258 15 1.375 14.825 1.025 14.475C0.675 14.125 0.5 13.6974 0.5 13.1923V1.80775C0.5 1.30258 0.675 0.875 1.025 0.525C1.375 0.175 1.80258 0 2.30775 0H7.798L9.798 2H17.6923C18.1974 2 18.625 2.175 18.975 2.525C19.325 2.875 19.5 3.30258 19.5 3.80775V13.1923C19.5 13.6974 19.325 14.125 18.975 14.475C18.625 14.825 18.1974 15 17.6923 15H2.30775ZM2.30775 13.5H17.6923C17.7821 13.5 17.8558 13.4712 17.9135 13.4135C17.9712 13.3558 18 13.2821 18 13.1923V3.80775C18 3.71792 17.9712 3.64417 17.9135 3.5865C17.8558 3.52883 17.7821 3.5 17.6923 3.5H9.1845L7.1845 1.5H2.30775C2.21792 1.5 2.14417 1.52883 2.0865 1.5865C2.02883 1.64417 2 1.71792 2 1.80775V13.1923C2 13.2821 2.02883 13.3558 2.0865 13.4135C2.14417 13.4712 2.21792 13.5 2.30775 13.5Z" fill="#554D4D"/>
</svg>
