<svg width="22" height="24" viewBox="0 0 22 24" fill="none" xmlns="http://www.w3.org/2000/svg">
<path d="M19.1667 2.66667H18V0.333332H15.6667V2.66667H6.33333V0.333332H4V2.66667H2.83333C1.53833 2.66667 0.511667 3.71667 0.511667 5L0.5 21.3333C0.5 22.6167 1.53833 23.6667 2.83333 23.6667H19.1667C20.45 23.6667 21.5 22.6167 21.5 21.3333V5C21.5 3.71667 20.45 2.66667 19.1667 2.66667ZM19.1667 21.3333H2.83333V9.66667H19.1667V21.3333ZM7.5 14.3333H5.16667V12H7.5V14.3333ZM12.1667 14.3333H9.83333V12H12.1667V14.3333ZM16.8333 14.3333H14.5V12H16.8333V14.3333ZM7.5 19H5.16667V16.6667H7.5V19ZM12.1667 19H9.83333V16.6667H12.1667V19ZM16.8333 19H14.5V16.6667H16.8333V19Z" fill="#222020"/>
</svg>
