<svg width="24" height="24" viewBox="0 0 24 24" fill="none" xmlns="http://www.w3.org/2000/svg">
<path d="M5 19.6155V17.3923C5 16.8769 5.133 16.417 5.399 16.0125C5.665 15.608 6.02025 15.2933 6.46475 15.0685C7.41508 14.6037 8.37067 14.2453 9.3315 13.9933C10.2925 13.7414 11.3486 13.6155 12.4998 13.6155C13.6511 13.6155 14.7072 13.7414 15.668 13.9933C16.629 14.2453 17.5847 14.6037 18.535 15.0685C18.9795 15.2933 19.3348 15.608 19.6008 16.0125C19.8668 16.417 19.9998 16.8769 19.9998 17.3923V19.6155H5ZM12.4998 12C11.5373 12 10.7133 11.6573 10.028 10.972C9.34267 10.2865 9 9.4625 9 8.5C9 7.5375 9.34267 6.71358 10.028 6.02825C10.7133 5.34275 11.5373 5 12.4998 5C13.4623 5 14.2863 5.34275 14.9718 6.02825C15.6571 6.71358 15.9998 7.5375 15.9998 8.5C15.9998 9.4625 15.6571 10.2865 14.9718 10.972C14.2863 11.6573 13.4623 12 12.4998 12ZM6.49975 18.1155H18.4998V17.3923C18.4998 17.1834 18.4475 16.9976 18.343 16.8348C18.2387 16.6719 18.073 16.5296 17.846 16.4078C17.023 15.9834 16.1756 15.6619 15.3038 15.4433C14.4319 15.2248 13.4973 15.1155 12.4998 15.1155C11.5024 15.1155 10.5678 15.2248 9.696 15.4433C8.82417 15.6619 7.97675 15.9834 7.15375 16.4078C6.92675 16.5296 6.761 16.6719 6.6565 16.8348C6.552 16.9976 6.49975 17.1834 6.49975 17.3923V18.1155ZM12.4998 10.5C13.0498 10.5 13.5206 10.3042 13.9123 9.9125C14.3039 9.52083 14.4998 9.05 14.4998 8.5C14.4998 7.95 14.3039 7.47917 13.9123 7.0875C13.5206 6.69583 13.0498 6.5 12.4998 6.5C11.9498 6.5 11.4789 6.69583 11.0873 7.0875C10.6956 7.47917 10.4998 7.95 10.4998 8.5C10.4998 9.05 10.6956 9.52083 11.0873 9.9125C11.4789 10.3042 11.9498 10.5 12.4998 10.5Z" fill="#554D4D"/>
<path d="M20.7979 18.62V16.9152C20.7979 16.4382 20.6811 15.9837 20.4477 15.5515C20.214 15.1194 19.8827 14.7486 19.4536 14.4392C19.9408 14.5118 20.4034 14.6243 20.8413 14.7765C21.2791 14.9289 21.6969 15.1089 22.0947 15.3166C22.4702 15.5169 22.7601 15.753 22.9645 16.0249C23.1689 16.2966 23.2711 16.5934 23.2711 16.9152V18.62H20.7979ZM20.169 10.5432C20.169 11.2426 19.92 11.8413 19.422 12.3394C18.924 12.8374 18.3254 13.0864 17.626 13.0864C17.544 13.0864 17.4397 13.0771 17.313 13.0584C17.1862 13.0398 17.0819 13.0193 17 12.997C17.2865 12.6525 17.5068 12.2703 17.6607 11.8504C17.8145 11.4305 17.8914 10.9945 17.8914 10.5425C17.8914 10.0903 17.8129 9.65592 17.656 9.23944C17.499 8.82309 17.2804 8.43979 17 8.08956C17.1043 8.05226 17.2086 8.02804 17.313 8.01689C17.4173 8.00563 17.5216 8 17.626 8C18.3254 8 18.924 8.24905 19.422 8.74715C19.92 9.24513 20.169 9.84381 20.169 10.5432Z" fill="#554D4D"/>
<path d="M4.20211 18.62V16.9152C4.20211 16.4382 4.31885 15.9837 4.55234 15.5515C4.78595 15.1194 5.11729 14.7486 5.54637 14.4392C5.05916 14.5118 4.59661 14.6243 4.15869 14.7765C3.7209 14.9289 3.30309 15.1089 2.90526 15.3166C2.52984 15.5169 2.23991 15.753 2.03549 16.0249C1.83107 16.2966 1.72886 16.5934 1.72886 16.9152V18.62H4.20211ZM4.831 10.5432C4.831 11.2426 5.07999 11.8413 5.57797 12.3394C6.07595 12.8374 6.67463 13.0864 7.37401 13.0864C7.456 13.0864 7.56033 13.0771 7.68701 13.0584C7.8138 13.0398 7.91813 13.0193 8 12.997C7.71347 12.6525 7.49324 12.2703 7.33932 11.8504C7.18551 11.4305 7.10861 10.9945 7.10861 10.5425C7.10861 10.0903 7.18709 9.65592 7.34404 9.23944C7.50099 8.82309 7.71964 8.43979 8 8.08956C7.89573 8.05226 7.7914 8.02804 7.68701 8.01689C7.58273 8.00563 7.4784 8 7.37401 8C6.67463 8 6.07595 8.24905 5.57797 8.74715C5.07999 9.24513 4.831 9.84381 4.831 10.5432Z" fill="#554D4D"/>
</svg>
