<svg width="163" height="54" viewBox="0 0 163 54" fill="none" xmlns="http://www.w3.org/2000/svg">
<path d="M62.222 31V21.9H66.2C67.188 21.9 68.0547 22.0907 68.8 22.472C69.5453 22.8533 70.126 23.382 70.542 24.058C70.958 24.734 71.166 25.5313 71.166 26.45C71.166 27.36 70.958 28.1573 70.542 28.842C70.126 29.518 69.5453 30.0467 68.8 30.428C68.0547 30.8093 67.188 31 66.2 31H62.222ZM63.912 29.57H66.122C66.8067 29.57 67.396 29.44 67.89 29.18C68.3927 28.92 68.7783 28.556 69.047 28.088C69.3243 27.62 69.463 27.074 69.463 26.45C69.463 25.8173 69.3243 25.2713 69.047 24.812C68.7783 24.344 68.3927 23.98 67.89 23.72C67.396 23.46 66.8067 23.33 66.122 23.33H63.912V29.57ZM73.0483 31L77.1433 21.9H78.8073L82.9153 31H81.1473L77.6243 22.797H78.3003L74.7903 31H73.0483ZM74.9333 28.894L75.3883 27.568H80.3023L80.7573 28.894H74.9333ZM88.3936 31.13C87.6829 31.13 87.0026 31.0303 86.3526 30.831C85.7026 30.623 85.1869 30.3587 84.8056 30.038L85.3906 28.725C85.7546 29.011 86.2053 29.2493 86.7426 29.44C87.2799 29.6307 87.8303 29.726 88.3936 29.726C88.8703 29.726 89.2559 29.674 89.5506 29.57C89.8453 29.466 90.0619 29.3273 90.2006 29.154C90.3393 28.972 90.4086 28.7683 90.4086 28.543C90.4086 28.2657 90.3089 28.0447 90.1096 27.88C89.9103 27.7067 89.6503 27.5723 89.3296 27.477C89.0176 27.373 88.6666 27.2777 88.2766 27.191C87.8953 27.1043 87.5096 27.0047 87.1196 26.892C86.7383 26.7707 86.3873 26.619 86.0666 26.437C85.7546 26.2463 85.4989 25.995 85.2996 25.683C85.1003 25.371 85.0006 24.9723 85.0006 24.487C85.0006 23.993 85.1306 23.5423 85.3906 23.135C85.6593 22.719 86.0623 22.3897 86.5996 22.147C87.1456 21.8957 87.8346 21.77 88.6666 21.77C89.2126 21.77 89.7543 21.8393 90.2916 21.978C90.8289 22.1167 91.2969 22.316 91.6956 22.576L91.1626 23.889C90.7553 23.6463 90.3349 23.4687 89.9016 23.356C89.4683 23.2347 89.0523 23.174 88.6536 23.174C88.1856 23.174 87.8043 23.2303 87.5096 23.343C87.2236 23.4557 87.0113 23.603 86.8726 23.785C86.7426 23.967 86.6776 24.175 86.6776 24.409C86.6776 24.6863 86.7729 24.9117 86.9636 25.085C87.1629 25.2497 87.4186 25.3797 87.7306 25.475C88.0513 25.5703 88.4066 25.6657 88.7966 25.761C89.1866 25.8477 89.5723 25.9473 89.9536 26.06C90.3436 26.1727 90.6946 26.32 91.0066 26.502C91.3273 26.684 91.5829 26.931 91.7736 27.243C91.9729 27.555 92.0726 27.9493 92.0726 28.426C92.0726 28.9113 91.9383 29.362 91.6696 29.778C91.4096 30.1853 91.0066 30.5147 90.4606 30.766C89.9146 31.0087 89.2256 31.13 88.3936 31.13ZM101.644 21.9H103.334V31H101.644V21.9ZM96.9384 31H95.2484V21.9H96.9384V31ZM101.774 27.1H96.7954V25.657H101.774V27.1ZM107.273 31V21.9H111.537C112.629 21.9 113.461 22.1167 114.033 22.55C114.605 22.9747 114.891 23.5467 114.891 24.266C114.891 24.7513 114.778 25.1673 114.553 25.514C114.327 25.852 114.024 26.1163 113.643 26.307C113.27 26.489 112.863 26.58 112.421 26.58L112.655 26.112C113.166 26.112 113.625 26.2073 114.033 26.398C114.44 26.58 114.761 26.8487 114.995 27.204C115.237 27.5593 115.359 28.0013 115.359 28.53C115.359 29.31 115.06 29.9167 114.462 30.35C113.864 30.7833 112.975 31 111.797 31H107.273ZM108.963 29.674H111.693C112.325 29.674 112.811 29.57 113.149 29.362C113.487 29.154 113.656 28.8203 113.656 28.361C113.656 27.9103 113.487 27.581 113.149 27.373C112.811 27.1563 112.325 27.048 111.693 27.048H108.833V25.735H111.355C111.944 25.735 112.395 25.631 112.707 25.423C113.027 25.215 113.188 24.903 113.188 24.487C113.188 24.0623 113.027 23.746 112.707 23.538C112.395 23.33 111.944 23.226 111.355 23.226H108.963V29.674ZM122.926 31.13C122.216 31.13 121.561 31.013 120.963 30.779C120.365 30.545 119.845 30.22 119.403 29.804C118.961 29.3793 118.619 28.8853 118.376 28.322C118.134 27.75 118.012 27.126 118.012 26.45C118.012 25.774 118.134 25.1543 118.376 24.591C118.619 24.019 118.961 23.525 119.403 23.109C119.845 22.6843 120.365 22.355 120.963 22.121C121.561 21.887 122.211 21.77 122.913 21.77C123.624 21.77 124.274 21.887 124.863 22.121C125.461 22.355 125.981 22.6843 126.423 23.109C126.865 23.525 127.208 24.019 127.45 24.591C127.693 25.1543 127.814 25.774 127.814 26.45C127.814 27.126 127.693 27.75 127.45 28.322C127.208 28.894 126.865 29.388 126.423 29.804C125.981 30.22 125.461 30.545 124.863 30.779C124.274 31.013 123.628 31.13 122.926 31.13ZM122.913 29.648C123.373 29.648 123.797 29.57 124.187 29.414C124.577 29.258 124.915 29.037 125.201 28.751C125.487 28.4563 125.708 28.1183 125.864 27.737C126.029 27.347 126.111 26.918 126.111 26.45C126.111 25.982 126.029 25.5573 125.864 25.176C125.708 24.786 125.487 24.448 125.201 24.162C124.915 23.8673 124.577 23.642 124.187 23.486C123.797 23.33 123.373 23.252 122.913 23.252C122.454 23.252 122.029 23.33 121.639 23.486C121.258 23.642 120.92 23.8673 120.625 24.162C120.339 24.448 120.114 24.786 119.949 25.176C119.793 25.5573 119.715 25.982 119.715 26.45C119.715 26.9093 119.793 27.334 119.949 27.724C120.114 28.114 120.339 28.4563 120.625 28.751C120.911 29.037 121.249 29.258 121.639 29.414C122.029 29.57 122.454 29.648 122.913 29.648ZM129.692 31L133.787 21.9H135.451L139.559 31H137.791L134.268 22.797H134.944L131.434 31H129.692ZM131.577 28.894L132.032 27.568H136.946L137.401 28.894H131.577ZM142.216 31V21.9H145.96C146.766 21.9 147.455 22.03 148.027 22.29C148.608 22.55 149.054 22.9227 149.366 23.408C149.678 23.8933 149.834 24.4697 149.834 25.137C149.834 25.8043 149.678 26.3807 149.366 26.866C149.054 27.3427 148.608 27.711 148.027 27.971C147.455 28.2223 146.766 28.348 145.96 28.348H143.152L143.906 27.581V31H142.216ZM148.17 31L145.869 27.698H147.676L149.99 31H148.17ZM143.906 27.763L143.152 26.957H145.882C146.627 26.957 147.186 26.7967 147.559 26.476C147.94 26.1553 148.131 25.709 148.131 25.137C148.131 24.5563 147.94 24.11 147.559 23.798C147.186 23.486 146.627 23.33 145.882 23.33H143.152L143.906 22.498V27.763ZM153.225 31V21.9H157.203C158.191 21.9 159.058 22.0907 159.803 22.472C160.548 22.8533 161.129 23.382 161.545 24.058C161.961 24.734 162.169 25.5313 162.169 26.45C162.169 27.36 161.961 28.1573 161.545 28.842C161.129 29.518 160.548 30.0467 159.803 30.428C159.058 30.8093 158.191 31 157.203 31H153.225ZM154.915 29.57H157.125C157.81 29.57 158.399 29.44 158.893 29.18C159.396 28.92 159.781 28.556 160.05 28.088C160.327 27.62 160.466 27.074 160.466 26.45C160.466 25.8173 160.327 25.2713 160.05 24.812C159.781 24.344 159.396 23.98 158.893 23.72C158.399 23.46 157.81 23.33 157.125 23.33H154.915V29.57Z" fill="#222020"/>
<path fill-rule="evenodd" clip-rule="evenodd" d="M21.2199 46.0299C21.1023 45.9481 21.0098 45.8836 20.9124 45.8158C20.8215 45.7525 20.6988 45.8429 20.7055 45.9536C20.71 46.0273 20.7725 46.0623 20.8462 46.057C20.9525 46.0493 21.069 46.0409 21.2199 46.0299ZM28.4297 46.6043C28.4549 46.7018 28.4781 46.792 28.4998 46.8765C28.5568 47.0979 28.7715 47.2349 28.9938 47.1817C29.2324 47.1245 29.4627 46.8689 29.5583 46.643C29.5623 46.6335 29.5662 46.624 29.5699 46.6145C29.6713 46.3528 29.3151 46.3934 29.0689 46.5282C28.8903 46.6259 28.6771 46.647 28.4297 46.6043ZM22.1385 45.1499C22.162 45.587 21.9705 46.5961 22.3982 46.6892C22.4184 46.6936 22.4392 46.6967 22.4606 46.6985C22.6671 46.715 22.7927 46.4943 22.8094 46.2878C22.8249 46.0954 22.8327 45.903 22.7638 45.7483C22.6517 45.4953 22.3466 45.3376 22.1385 45.1499ZM14.2215 45.7456C13.6628 46.4324 13.1898 46.4771 12.4994 45.9729C12.1864 45.7444 11.7571 45.6985 11.5723 45.2636C11.5249 45.1538 11.3959 45.4144 11.474 45.505C11.6727 45.7354 11.7633 46.0032 11.7447 46.3611C11.7174 46.8867 12.4928 47.0353 12.8929 47.3772C13.0402 47.503 13.1107 47.6721 13.1206 47.8989C13.1364 48.2649 12.8749 48.6249 12.5397 48.6982C11.723 48.8775 10.6707 47.9848 10.5139 47.1635C10.503 47.1064 10.453 47.0506 10.4086 47.0086C10.0754 46.6945 9.91433 46.4505 9.91644 46.174C9.91979 45.7357 9.79422 45.1324 9.4296 45.3757C9.13943 45.569 8.8498 45.5666 8.59634 45.4125C8.31354 45.2405 7.92751 45.1647 7.70548 45.4101C7.53977 45.5933 7.57761 45.8682 7.62039 46.1114C7.64321 46.2412 7.59912 46.3622 7.47951 46.4831C7.28461 46.6799 7.06413 46.6827 6.86284 46.4949C6.83513 46.4691 6.81167 46.4422 6.79242 46.4142C6.5682 46.0874 6.5206 45.4983 6.35049 45.1404C6.22456 44.8754 6.0048 44.6611 5.71156 44.6699C5.57356 44.674 5.44358 44.6649 5.32775 44.6177C4.83166 44.4157 4.26714 44.3842 3.78584 44.1491C3.67135 44.0932 3.56922 44.0003 3.48526 43.8691C3.26365 43.5238 3.34267 43.0331 3.65909 42.7871C4.00733 42.5168 4.35729 42.5716 4.71318 42.9675C4.80014 43.0643 5.04568 43.1042 5.03164 42.9748C4.98875 42.5883 5.24196 42.2414 5.07754 41.814C4.9071 41.3716 5.25965 40.9225 5.71039 40.8584C6.12464 40.7989 6.52459 41.1795 6.56786 41.6382C6.58216 41.7887 6.67359 41.9364 6.74921 42.0738C6.89535 42.3386 7.22692 42.4393 7.51701 42.3536C7.97879 42.2173 8.44813 42.079 8.9253 41.9381C9.00182 41.9155 9.05981 41.8762 9.03104 41.8017C8.99779 41.7157 8.87475 41.6444 8.80374 41.7032C8.76712 41.7336 8.73252 41.7605 8.69592 41.7839C8.45437 41.9376 8.21884 41.9154 8.0499 41.677C7.87231 41.4255 7.9201 41.1815 8.1402 40.9609C8.26098 40.8397 8.34036 40.6738 8.45587 40.5455C8.79731 40.1694 8.84378 39.6773 8.86403 39.1698C8.86416 39.1666 8.86431 39.1633 8.86448 39.1601C8.90361 38.3818 9.6625 37.9208 10.3454 38.2238C10.4508 38.2706 10.5522 38.3266 10.6549 38.3795C10.6773 38.3911 10.6973 38.4069 10.7125 38.427C10.7272 38.4464 10.7371 38.469 10.7429 38.4927C10.8201 38.8115 10.9649 39.1361 10.9395 39.4456C10.906 39.8472 10.7457 40.06 10.3451 40.2419C10.0573 40.3726 9.87092 40.6638 9.94261 40.9717C10.0259 41.3293 10.4812 41.4594 10.7626 41.6954C10.8092 41.7346 10.8522 41.7845 10.8913 41.8461C11.0794 42.1412 10.9752 42.3867 10.7803 42.6473C10.7005 42.7542 10.707 42.9323 10.6902 43.0912C10.6859 43.1313 10.7066 43.1706 10.7434 43.187C10.7855 43.2058 10.8352 43.1893 10.8576 43.1489C10.9206 43.0353 10.9841 42.9217 11.046 42.8077C11.1141 42.6826 11.1521 42.4865 11.2514 42.4433C11.5716 42.3039 11.7484 42.0219 11.9768 41.7823C12.2977 41.4449 12.7861 41.412 13.183 41.6461C13.5623 41.8695 13.7719 42.3123 13.7121 42.7641C13.6473 43.2505 13.3441 43.605 12.8907 43.7036C12.631 43.7601 12.291 44.0031 12.4776 44.1923C12.5427 44.2584 12.6706 44.2366 12.8903 44.1523C12.9622 44.125 13.0472 44.0699 13.1086 44.0893C13.5864 44.2398 13.7361 43.7582 14.0262 43.5582C14.0842 43.5182 14.0657 43.3238 14.0518 43.2046C13.9732 42.5447 14.4055 41.8457 15.0255 41.6465C15.664 41.4409 16.3669 41.7439 16.6558 42.3491C16.8702 42.7981 16.9432 42.9153 17.1993 42.788C17.3948 42.6908 17.4283 42.4454 17.3391 42.2461C17.1705 41.8691 17.2936 41.4108 17.6194 41.176C17.9512 40.9364 18.3982 40.9716 18.668 41.277C18.8317 41.4619 18.9837 41.6611 19.1195 41.8695C19.3114 42.1633 19.2444 42.5879 18.9886 42.8647C18.9349 42.9228 18.8893 42.9893 18.8424 43.0544C18.8211 43.0841 18.8271 43.1257 18.8563 43.1476C18.8883 43.1715 18.934 43.1619 18.954 43.1274C19.0653 42.9356 19.1899 42.7499 19.27 42.5447C19.4404 42.1067 19.7858 41.8136 20.1892 41.8144C20.5932 41.8152 20.983 42.1297 21.1001 42.5499C21.2159 42.9649 21.0594 43.3816 20.682 43.6703C20.6242 43.7143 20.6741 43.7706 20.7394 43.7388C20.9822 43.6204 21.2316 43.5681 21.4545 43.7669C21.6053 43.9014 21.7131 44.0889 21.8218 44.2852C21.8733 44.3783 22.0075 44.3426 22.0038 44.2363C21.9884 43.7673 22.1171 43.3238 22.4542 43.0398C22.9027 42.6616 23.3888 42.3039 23.9095 42.0556C24.5322 41.759 25.2121 42.3507 25.1951 43.0834C25.1902 43.2889 25.2158 43.5028 25.2681 43.7012C25.4525 44.403 25.2911 44.9995 24.8102 45.5096C24.5495 45.7856 24.5638 45.9143 24.9069 46.0347C25.1915 46.1347 26.1849 46.1354 26.4507 45.9928C26.6796 45.87 26.9427 45.8232 27.232 45.8564C27.5666 45.8947 27.9099 45.6276 28.1078 45.3551C28.1819 45.2531 28.2855 45.1677 28.4264 45.1032C28.6652 44.994 28.8682 45.0241 29.0471 45.1278C29.2123 45.2234 29.4274 45.2454 29.5792 45.1296C29.783 44.9741 29.7349 44.6765 29.6481 44.4354C29.6051 44.3161 29.6079 44.1791 29.6905 44.024C29.7955 43.8271 30.0563 43.6394 30.2681 43.6085C30.5495 43.5677 30.7681 43.7959 30.8257 44.1099C30.907 44.5537 30.839 45.2403 30.8485 45.6914C30.8503 45.7777 30.8399 45.87 30.8155 45.9694C30.7978 46.0403 31.0097 46.1737 31.1154 46.2787C31.1908 46.3644 31.2534 46.4617 31.2883 46.5704C31.3103 46.6393 31.3281 46.7074 31.3412 46.7747C31.4551 47.3639 31.5786 48.1971 31.4198 48.7758C31.3332 49.0906 31.1432 49.2903 30.8392 49.3445C30.7934 49.3527 30.7492 49.3574 30.7066 49.3589C30.1791 49.3778 29.5355 49.1987 29.0168 49.1009C28.4699 48.9978 27.8689 48.8227 27.3213 48.922C27.1768 48.9482 27.0241 48.9517 26.8615 48.9279C26.7852 48.9168 26.6967 49.0895 26.6008 49.1108C26.3814 49.1596 26.1094 49.2566 25.9427 49.1651C25.7964 49.0843 25.641 48.7061 25.7046 48.577C25.8705 48.2404 25.0768 48.1145 24.7033 48.0781C24.6447 48.0724 24.5842 48.0587 24.5217 48.0364C24.0792 47.8779 23.624 48.1326 23.3666 48.5259C23.2686 48.6757 23.1284 48.7914 22.9407 48.8851C22.4588 49.1261 22.0501 49.0253 21.5623 48.5407C21.5389 48.5175 21.4986 48.5289 21.4917 48.5612C21.4869 48.5833 21.4652 48.5974 21.4429 48.5934C21.1779 48.5455 20.877 48.5558 20.6719 48.413C20.4096 48.2298 20.4365 47.9652 20.531 47.6825C20.5716 47.5608 20.4667 47.4394 20.3419 47.4692C19.8641 47.5813 19.53 47.3956 19.3121 46.9318C19.2197 46.7333 18.9015 46.8306 18.8146 47.0315C18.5915 47.5471 18.2341 47.6539 17.7916 47.4815C17.6302 47.4186 17.3975 47.5443 17.4584 47.7065C17.5814 48.0332 17.5641 48.3243 17.3647 48.6182C17.2849 48.7354 17.2943 48.9152 17.227 49.0459C17.1186 49.255 17.0189 49.5362 16.8436 49.6202C16.684 49.6962 16.3552 49.6202 16.2355 49.4823C16.1061 49.333 16.1242 49.0352 16.0945 48.7996C16.0775 48.6661 16.1054 48.5271 16.0941 48.392C16.0497 47.8455 16.0771 47.2934 16.0907 46.7524C16.0968 46.5192 16.2097 46.3579 16.4005 46.2733C16.8642 46.0678 17.4242 45.8214 17.5327 45.326C17.57 45.1555 17.5446 45.0272 17.4801 44.8651C17.478 44.86 17.476 44.8548 17.474 44.8498C17.3035 44.4215 16.8433 44.1774 16.3954 44.2863C16.2145 44.3303 16.032 44.3776 15.851 44.4307C15.7558 44.4588 15.6524 44.6097 15.6272 44.7222C15.5369 45.125 15.2648 45.3305 14.904 45.23C14.4084 45.092 14.3696 45.0812 14.2953 45.5157C14.2817 45.5953 14.2571 45.6731 14.2215 45.7456Z" fill="#ED4135"/>
<path fill-rule="evenodd" clip-rule="evenodd" d="M6.95523 26.2058C6.98194 26.1757 6.97749 26.1297 6.94504 26.1059C6.88911 26.065 6.8325 26.0248 6.78366 25.9757C6.62188 25.8137 6.38522 25.6699 6.32727 25.4711C6.30927 25.4094 6.28901 25.3567 6.26603 25.3119C6.14163 25.0695 5.89683 25.3633 5.96341 25.6275C5.99689 25.7603 6.08464 25.8439 6.21114 25.8965C6.47235 26.0051 6.71379 26.1055 6.95523 26.2058ZM8.32465 27.7948C7.99544 27.6183 7.66265 27.44 7.32122 27.257C7.25964 27.224 7.18386 27.2614 7.17262 27.3303C7.16583 27.3719 7.15891 27.4144 7.15193 27.4571C7.14733 27.4853 7.17652 27.5071 7.20232 27.4948C7.21875 27.487 7.23837 27.4931 7.24765 27.5087C7.31686 27.6253 7.38609 27.742 7.45517 27.8583C7.63646 28.1637 8.07442 28.174 8.26999 27.8776C8.28852 27.8495 8.30676 27.8219 8.32465 27.7948ZM10.5583 30.8463C10.2622 30.819 9.88142 30.9057 9.7234 30.7469C9.46837 30.4896 9.1413 30.4431 8.84086 30.3597C8.53185 30.274 8.09388 30.3497 7.92835 30.6244C7.828 30.7909 7.85391 30.9817 7.97481 31.1339C8.10646 31.2997 8.24224 31.4707 8.38461 31.6501C8.43181 31.7096 8.49712 31.7381 8.56964 31.7157C8.65783 31.6883 8.72362 31.5955 8.7193 31.5033C8.70552 31.2091 8.81712 30.991 9.11124 30.9168C9.62455 30.7874 10.6022 31.424 10.5627 30.8962C10.5616 30.8807 10.56 30.8641 10.5583 30.8463ZM9.298 19.3229C9.55761 19.5367 9.75966 19.7078 9.96697 19.871C10.0204 19.913 10.0889 19.9451 10.1547 19.9577C10.5927 20.0416 11.0202 19.8329 11.437 19.6743C11.8715 19.509 12.3148 19.6326 12.6752 20.153C13.0428 20.6837 12.8524 21.4283 12.3106 21.757C11.9609 21.9689 11.6021 21.9693 11.2978 21.7953C10.8162 21.5198 10.416 20.9791 9.86125 20.9863C9.63663 20.989 9.36798 21.0421 9.19792 21.1807C8.81876 21.4884 8.64321 21.5994 8.39299 21.5309C8.16767 21.4692 7.89945 21.5454 7.78832 21.7509C7.66238 21.9838 7.80643 22.2278 8.06229 22.2958C8.19015 22.3298 8.3169 22.3729 8.43339 22.4366C8.57373 22.5138 8.66854 22.7919 8.68585 22.9887C8.7113 23.2841 8.58166 23.5135 8.34326 23.6506C7.99564 23.8505 7.49573 24.1357 7.60128 24.5226C7.75334 25.0799 8.18146 24.0886 8.54671 23.641C8.56238 23.6218 8.57945 23.6033 8.59791 23.5855C8.92614 23.2689 9.23321 22.8967 9.48087 22.5137C9.60213 22.3263 9.78719 22.2151 10.0257 22.1962C10.4155 22.1653 10.8 22.5257 10.8323 22.9519C10.8536 23.2311 10.7472 23.4563 10.5322 23.6096C10.2265 23.8275 9.99985 24.1602 9.82982 24.4949C9.63904 24.8704 9.38997 25.2888 9.62218 25.6402C9.65085 25.6836 9.67996 25.7267 9.70962 25.7694C9.7574 25.8383 9.86764 25.8799 9.95493 25.8941C10.303 25.9523 10.5987 26.1282 10.6258 26.5005C10.6446 26.7595 10.552 27.0843 10.3989 27.2866C10.1912 27.5595 9.86125 27.5322 9.55084 27.3987C9.45916 27.3593 9.45576 27.4718 9.55137 27.5005C9.95947 27.6229 10.3027 27.8539 10.4365 28.2902C10.5357 28.6144 10.5977 28.9512 10.6473 29.2824C10.7346 29.8666 11.1874 30.3286 11.7748 30.3901C11.8441 30.3972 11.9204 30.3723 11.9882 30.3465C12.4333 30.177 12.7606 30.2487 12.9766 30.5841C13.1767 30.8962 13.1718 31.2182 12.9596 31.522C12.7283 31.8531 12.4013 31.9125 11.9641 31.7216C11.8991 31.6935 11.8367 31.773 11.8684 31.8364C12.2066 32.5119 12.1821 33.1289 11.6676 33.6876C11.2573 34.1327 10.73 34.2099 10.0716 33.9402C9.97729 33.9016 9.86672 33.9284 9.80782 34.0116C9.53617 34.3961 9.20055 34.5098 8.84651 34.3379C8.47778 34.1589 8.33669 33.7819 8.44204 33.3244C8.48399 33.142 8.20113 33.0705 8.07449 33.2084C8.03403 33.2525 7.99587 33.2914 7.95555 33.3276C7.44762 33.7842 6.78805 33.7914 6.21992 33.3878C6.09538 33.2991 5.90425 33.2559 5.75337 33.2757C5.12522 33.3577 4.27 33.2832 3.64739 33.1664C3.51999 33.1425 3.39373 33.0873 3.26299 33.002C2.85928 32.7391 2.664 32.2337 2.77613 31.7422C2.87658 31.3026 3.27541 30.9402 3.70395 30.9002C4.21068 30.8525 4.55452 31.0613 4.83271 31.6098C4.88308 31.7091 5.00896 31.7452 5.09679 31.6767C5.15981 31.6276 5.18151 31.5395 5.15245 31.4651C4.99523 31.0623 5.04927 30.7077 5.33423 30.3255C5.33892 30.3192 5.3433 30.3127 5.34738 30.3059C5.56496 29.9438 5.06298 29.5388 4.64441 29.4817C4.37122 29.4445 4.09138 29.5669 3.84359 29.6878C3.61098 29.8014 3.36751 29.7912 3.13507 29.6316C2.57672 29.2481 2.0995 28.4038 1.9879 27.7356C1.9676 27.6141 1.97505 27.481 2.01121 27.3377C2.12484 26.8866 2.61547 26.6019 3.03724 26.7421C3.46836 26.8848 3.65863 27.2219 3.59781 27.7051C3.56859 27.9372 3.66136 28.1787 3.87395 28.2764C4.04555 28.3553 4.24625 28.3159 4.39712 28.2023C4.86094 27.853 5.22824 27.9254 5.54223 28.4455C5.60815 28.5547 5.73799 28.6035 5.83618 28.5221C5.96489 28.4154 5.92702 28.1853 5.77232 28.1219C5.4442 27.9875 5.21909 27.7641 5.1054 27.4438C5.00711 27.1669 4.81556 26.9198 4.54472 26.8058C3.99425 26.5742 3.78263 26.2038 3.83263 25.6153C3.84616 25.4558 3.88473 25.3145 3.94629 25.1918C4.26842 24.5499 4.86747 24.003 4.94783 23.2893C5.00125 22.8144 5.35267 22.513 5.76278 22.2893C5.90011 22.214 6.02465 22.0013 6.04233 21.8378C6.05324 21.7396 5.86474 21.5601 5.73456 21.5114C4.88687 21.1938 4.6092 20.267 5.18411 19.5442C5.44786 19.2128 5.17207 18.9779 5.1066 18.7102C5.05524 18.5012 4.96696 18.3021 4.87028 18.0652C4.82264 17.9485 4.6971 17.9158 4.60469 17.8301C4.435 17.6721 4.22694 17.5093 4.15244 17.301C4.05461 17.0273 4.19646 16.7521 4.46397 16.6452C4.76537 16.5253 4.46582 16.1714 4.14149 16.1768C3.96596 16.1798 3.79487 16.173 3.62945 16.137C3.42289 16.0923 3.21709 15.8689 3.08201 15.6717C2.7923 15.2499 2.85551 14.6423 3.17984 14.2518C3.50567 13.8593 4.06214 13.7334 4.50912 13.9516C4.61106 14.0013 4.70115 14.0608 4.77932 14.13C5.27317 14.567 5.97785 15.1405 6.53505 15.4932C6.74446 15.6258 6.89081 15.8357 6.96186 16.1147C7.05435 16.4778 7.51852 16.8316 7.83479 17.0326C8.07357 17.1844 8.37249 17.1958 8.56594 16.9893C8.69514 16.8514 8.82332 16.7256 8.96766 16.6258C9.08768 16.543 9.34767 16.6071 9.50908 16.6844C9.87221 16.8594 9.97534 17.2291 9.82575 17.7184C9.79574 17.8166 9.81858 17.9323 9.88498 18.0106C9.96691 18.1072 10.0968 18.128 10.2086 18.0686C10.3566 17.99 10.5008 17.9138 10.6532 17.8804C10.7548 17.8583 10.9177 17.9783 11.0039 18.0797C11.2048 18.3165 11.1762 18.5759 10.9727 18.802C10.6644 19.1439 9.25739 18.8451 9.29606 19.3038C9.29658 19.31 9.29723 19.3164 9.298 19.3229Z" fill="#ED4135"/>
<path fill-rule="evenodd" clip-rule="evenodd" d="M10.5435 12.9487C10.5161 12.9039 10.4587 12.8882 10.4126 12.9131C10.3153 12.9655 10.2176 13.0181 10.1174 13.072C10.0279 13.1202 10.0062 13.2489 10.0585 13.3361C10.1307 13.4563 10.2978 13.4344 10.3611 13.3093C10.424 13.185 10.4837 13.0669 10.5435 12.9487ZM8.27088 8.39207C8.46276 8.39207 8.65691 8.36474 8.84014 8.40039C8.915 8.41471 8.9874 8.44305 9.06305 8.47006C9.16136 8.50516 9.20606 8.40479 9.12947 8.33385C8.84541 8.07087 8.77392 7.68552 8.94511 7.34927C9.1148 7.0154 9.49255 6.84589 9.8244 6.9548C10.1762 7.07045 10.3963 7.43323 10.3711 7.82651C10.3643 7.92948 10.3718 8.07127 10.4313 8.13503C10.8467 8.5798 10.9283 8.83921 10.7387 9.21783C10.5739 9.54698 10.2931 9.67193 9.83374 9.60005C9.72296 9.58271 9.61224 9.63616 9.57098 9.74042C9.52649 9.85283 9.57865 9.98153 9.68991 10.0288C9.75218 10.0553 9.81059 10.0816 9.86692 10.1121C10.0407 10.207 10.238 10.2325 10.4098 10.1339C10.4791 10.0941 10.5499 10.0577 10.6239 10.0309C11.1138 9.85389 11.6357 10.1307 11.8467 10.65C11.8941 10.7668 11.9472 10.9022 12.0371 10.9763C12.743 11.5609 12.799 12.2104 12.1996 12.7312C12.0423 12.8679 11.9705 13.0817 12.071 13.2642C12.1673 13.4391 12.389 13.5306 12.5755 13.4596C12.6979 13.413 12.8175 13.3602 12.9217 13.2841C13.3484 12.9726 13.2668 12.2901 13.5753 11.8612C13.6368 11.7756 13.7232 11.7092 13.8367 11.6599C14.1516 11.5232 14.4413 11.585 14.6596 11.8773C14.8259 12.1002 14.8431 12.3273 14.7185 12.6004C14.6218 12.8125 14.5786 13.0511 14.6678 13.2665C14.7963 13.5768 15.1938 13.7524 15.3079 13.4365C15.3121 13.4248 15.3162 13.4127 15.3203 13.4001C15.4133 13.11 15.5844 12.8478 15.7577 12.5585C15.8452 12.4125 15.8668 12.2409 15.822 12.0767C15.7503 11.8133 15.5209 11.6246 15.2479 11.6186C15.0153 11.6135 14.7915 11.5986 14.6039 11.5042C14.3443 11.3731 14.2321 10.951 13.9929 10.7331C13.7648 10.5256 13.4112 10.4646 13.1986 10.2464C13.0492 10.0931 12.9269 9.73547 12.9954 9.55448C13.0187 9.49327 13.0361 9.43371 13.0485 9.37557C13.2047 8.64059 11.9469 8.40208 11.6646 7.70571C11.5322 7.37887 11.59 7.10604 11.882 6.81851C12.0346 6.6683 12.0111 6.45896 11.9182 6.26607C11.7978 6.01735 11.6349 5.75002 11.633 5.48863C11.6304 5.16268 11.881 4.93772 12.1925 4.85455C12.5119 4.76861 12.7663 4.90287 12.9702 5.15951C13.027 5.23159 13.0695 5.31832 13.1346 5.37971C13.7279 5.93797 13.7378 6.40027 13.1464 6.82687C13.0632 6.88685 13.0215 6.98434 13.057 7.08053C13.1005 7.19829 13.2379 7.26214 13.3517 7.20921C13.3886 7.19206 13.4249 7.17571 13.4616 7.16035C13.8457 6.99956 14.1972 7.08194 14.4918 7.3667C14.7743 7.64037 14.88 7.98651 14.7721 8.39207C14.6596 8.81545 14.9797 9.39764 15.382 9.53824C15.7651 9.67183 15.9817 9.92893 16.0825 10.2694C16.1612 10.5354 16.4045 10.7003 16.3553 10.4274C16.2872 10.0507 16.5321 9.71725 16.8734 9.66973C17.2094 9.62299 17.5405 9.84953 17.5687 10.2024C17.5819 10.3668 17.5206 10.5377 17.4695 10.7309C17.4496 10.806 17.4542 10.8664 17.506 10.9243C17.5939 11.0226 17.76 11.049 17.8708 10.9776C18.1112 10.8225 18.3538 10.7625 18.5939 10.7916C18.958 10.8357 19.3844 10.807 19.611 10.5185C19.6984 10.4072 19.7379 10.2847 19.7437 10.1433C19.7472 10.0578 19.7508 9.97185 19.7544 9.88499C19.777 9.34095 19.353 8.80958 19.3951 8.2667C19.3962 8.25324 19.3975 8.23959 19.3992 8.22573C19.4067 8.16078 19.3326 8.05582 19.2697 8.01543C18.9928 7.83879 18.8265 7.57779 19.0033 7.28313C19.1087 7.10768 19.3935 6.93817 19.5813 6.95599C19.7341 6.97046 19.8438 7.03738 19.9166 7.14016C20.1076 7.41004 20.3196 7.72084 20.5135 7.98868C20.5496 8.03854 20.5794 8.0941 20.6028 8.15518C20.6769 8.34789 20.8168 8.52628 21.0213 8.55479C21.1238 8.56908 21.2236 8.58297 21.323 8.59683C21.3397 8.59915 21.3558 8.58972 21.3618 8.57396C21.368 8.55757 21.3618 8.53898 21.3469 8.52985C21.2625 8.4784 21.1753 8.4311 21.0968 8.37108C20.7627 8.11563 20.6765 7.65304 20.8914 7.29659C21.1084 6.93698 21.5554 6.79718 21.8948 7.03679C22.0991 7.18095 22.2613 7.17857 22.4863 7.12075C23.4777 6.86688 24.3596 7.84829 24.1102 8.92317C24.0627 9.12833 24.1463 9.29784 24.1561 9.46576C24.185 9.96914 24.48 10.3545 24.5733 10.8115C24.6625 11.2476 24.4382 11.6539 24.071 11.8504C23.6952 12.0508 23.3321 12.0207 22.9968 11.7415C22.9415 11.6952 22.8892 11.6452 22.8365 11.5956C22.8154 11.5758 22.7817 11.5792 22.7646 11.6025C22.7494 11.6232 22.7535 11.6522 22.7734 11.6685C22.8944 11.7676 23.0096 11.8787 23.1432 11.9537C23.4758 12.1415 23.8028 12.3134 23.8212 12.791C23.825 12.8861 23.9307 12.987 24.0071 13.067C24.3494 13.4267 24.3656 13.9158 24.0383 14.2461C23.7211 14.5661 23.2753 14.5388 22.9434 14.1962C22.8411 14.0908 22.703 14.0223 22.5777 13.9427C22.5352 13.9158 22.4716 13.9197 22.4355 13.8873C22.2741 13.7407 22.06 13.616 21.9731 13.4282C21.7511 12.9466 21.4429 12.4361 21.4422 11.9367C21.4418 11.503 21.7816 11.0444 22.0415 10.648C22.1186 10.5306 22.333 10.513 22.5311 10.5142C22.612 10.5147 22.6946 10.4771 22.7488 10.4171C22.8992 10.2509 22.7943 9.98952 22.5717 9.96326C22.5104 9.95602 22.4476 9.94862 22.3834 9.94104C22.1901 9.91821 22.0169 10.0506 21.94 10.2294C21.8812 10.366 21.8034 10.4908 21.7051 10.599C21.4304 10.9011 21.1755 11.2719 21.0276 11.6525C20.9557 11.8374 20.8448 11.9865 20.7066 12.0908C20.2004 12.4727 19.4227 12.7723 18.8183 12.9643C18.3654 13.1083 17.8019 13.2095 17.4607 13.5402C17.3298 13.6671 17.2106 13.8099 17.1405 14.0077C17.028 14.3253 16.6631 14.4144 16.3169 14.4041C16.2142 14.4009 16.0404 14.4655 16.0159 14.5411C15.891 14.9229 15.6581 15.1396 15.2777 15.1059C14.8289 15.0665 14.1436 14.8432 13.6978 14.7782C13.5171 14.7518 13.3326 14.6665 13.1437 14.5178C13.0996 14.4829 13.024 14.4722 12.9664 14.4794C12.5797 14.5254 12.495 14.5367 12.3213 14.4054C12.2204 14.329 12.0524 14.367 11.9702 14.4632C11.919 14.5232 11.9278 14.5751 11.9536 14.6496C12.0784 15.0114 12.2275 15.326 12.2418 15.6473C12.2527 15.8853 12.0744 16.1844 11.8983 16.3685C11.5138 16.7709 10.9035 16.7178 10.5223 16.3067C10.1242 15.8771 10.123 15.379 10.5183 14.8184C10.5858 14.7228 10.5964 14.5962 10.536 14.4961C10.5249 14.4778 10.5139 14.4596 10.5029 14.4414C10.3986 14.2685 10.1571 14.2963 10.0629 14.475C9.90846 14.7684 9.98958 15.1072 10.011 15.4381C10.0204 15.5831 9.96158 15.7199 9.82779 15.8517C9.4396 16.2344 8.65982 16.1839 8.11944 16.2556C7.92223 16.2818 7.72407 16.2305 7.52402 16.102C7.05286 15.7997 6.94919 15.3716 7.20872 14.6497C7.239 14.5655 7.14707 14.4891 7.06876 14.5324C6.77905 14.6901 6.50063 14.6671 6.24365 14.456C5.98367 14.2425 5.92986 13.9562 5.97953 13.6247C6.0521 13.1393 5.50965 12.8458 5.36232 12.3776C5.32995 12.2748 5.31164 12.1343 5.28497 11.932C5.27519 11.8571 5.22515 11.7874 5.19016 11.7177C4.9535 11.2492 5.01295 10.7525 5.34668 10.4254C5.67326 10.105 6.1733 10.0527 6.55218 10.3002C6.9589 10.5652 7.10488 11.0405 6.94159 11.5648C6.91848 11.6386 6.96378 11.7164 7.03873 11.7353C7.10991 11.7532 7.1815 11.7713 7.25438 11.7897C7.43618 11.8357 7.61276 11.7241 7.71017 11.5639C7.75827 11.4848 7.81554 11.4185 7.88427 11.3697C8.10707 11.2113 8.40528 11.062 8.43864 10.7907C8.46207 10.6003 8.36178 10.42 8.19904 10.3182C7.86048 10.1066 7.68534 9.89682 7.64201 9.62252C7.57035 9.16892 7.53431 8.59861 7.10263 8.44197C6.9352 8.38138 6.66279 8.3794 6.54578 8.48475C6.33132 8.67802 6.11686 8.84119 5.87004 8.6994C5.70788 8.60633 5.55926 8.37821 5.51862 8.18414C5.45579 7.88354 5.66574 7.70373 5.9182 7.57502C6.01226 7.5271 6.09428 7.41066 6.13943 7.30531C6.27074 6.99639 6.48558 6.74648 6.79749 6.78529C7.04544 6.81619 7.27833 7.01461 7.50747 7.15798C7.59589 7.21342 7.63916 7.35838 7.72908 7.40036C8.25771 7.64789 8.34989 7.79997 8.27088 8.39207Z" fill="#ED4135"/>
<path fill-rule="evenodd" clip-rule="evenodd" d="M32.4988 9.93604C32.3185 10.0325 32.1705 10.1117 32.0255 10.1891C31.9986 10.2035 31.9887 10.2371 32.0033 10.2639C32.0118 10.2796 32.0274 10.2902 32.0451 10.2922C32.1076 10.2996 32.1702 10.3068 32.2336 10.3142C32.4407 10.3382 32.5919 10.1226 32.4988 9.93604ZM31.9473 12.5665C31.7622 12.2853 31.4586 12.3138 31.1535 12.3827C31.0812 12.3993 30.9616 12.4991 30.9691 12.536C30.9854 12.6132 31.0272 12.6845 31.0696 12.7557C31.0884 12.7871 31.1381 12.7796 31.146 12.7439C31.1494 12.7285 31.1616 12.7166 31.177 12.7137C31.4349 12.6642 31.6931 12.6152 31.9473 12.5665ZM35.3721 10.9251C35.0067 11.1478 34.6732 11.1049 34.3398 10.9741C34.1004 10.8802 33.8324 11.1156 33.7032 11.338C33.6946 11.3528 33.6853 11.3673 33.6753 11.3815C33.5832 11.5114 33.5479 11.6998 33.653 11.8195C33.7693 11.952 33.9769 11.9209 34.0762 11.7752C34.4912 11.1661 34.9216 11.1283 35.6373 11.579C35.7145 11.6277 35.7734 11.472 35.7194 11.3984C35.6052 11.2427 35.4976 11.0959 35.3721 10.9251ZM30.2855 9.66667C30.7035 9.60608 30.9154 9.36845 30.9567 8.91299C30.9906 8.54229 31.222 8.2904 31.5467 8.12683C31.6878 8.05554 31.7898 7.89316 31.9327 7.83455C32.441 7.62583 32.949 7.39137 33.4787 7.28166C33.5518 7.26653 33.6361 7.31093 33.7269 7.38036C33.9872 7.57947 34.2999 7.54843 34.6275 7.55992C35.0291 7.574 35.4885 7.58856 35.8521 7.7597C35.9277 7.79526 35.9981 7.861 36.0598 7.96722C36.1535 8.12842 36.1433 8.4611 36.0432 8.6211C35.8642 8.90798 35.6091 8.87062 35.362 8.73666C35.2815 8.69302 35.1634 8.71083 35.0921 8.7683C34.9828 8.85633 35.0074 9.00995 35.1227 9.08986C35.2841 9.20168 35.4557 9.32055 35.6452 9.45182C35.807 9.56394 36.0093 9.60057 36.2 9.55143C36.42 9.49473 36.678 9.42867 36.9376 9.36924C37.3195 9.28171 37.6381 9.68766 37.5347 10.1174C37.474 10.3702 37.6935 10.5921 37.9416 10.6698C38.0322 10.6981 38.1141 10.7396 38.1866 10.7963C38.4115 10.9722 38.7094 11.2197 38.9088 11.0155C38.9651 10.9579 39.0129 10.8803 39.0521 10.7732C39.1364 10.5435 39.3245 10.3843 39.2767 10.0758C39.2161 9.6841 39.4039 9.33043 39.741 9.18191C40.0627 9.04012 40.2512 8.83853 40.3554 8.50664C40.4028 8.35646 40.333 8.19733 40.1759 8.18694C39.5318 8.14433 39.0789 7.83055 38.9674 7.05552C38.8854 6.48283 39.2131 5.9442 39.709 5.73152C40.2143 5.51488 40.7798 5.6737 41.1207 6.12757C41.5789 6.73701 42.2961 8.03457 42.5364 8.7582C42.5429 8.77766 42.549 8.79744 42.555 8.81754C42.772 9.55578 42.2619 10.3752 41.5301 10.4279C41.299 10.4445 41.1053 10.4612 41.001 10.7099C40.986 10.7447 40.9563 10.7843 40.9243 10.7978C40.6481 10.9134 40.2869 10.9475 40.1142 11.1558C39.9156 11.3954 39.7835 11.6038 39.4502 11.6719C39.2586 11.7111 39.1044 11.978 38.9482 12.157C38.8959 12.2178 39.0402 12.2755 39.1079 12.2326C39.3804 12.06 39.6399 11.861 39.9265 11.7982C39.9586 11.7912 39.9911 11.786 40.0238 11.7824C40.5351 11.7264 40.9001 11.4577 41.0906 10.98C41.2257 10.6421 41.5331 10.4758 41.8995 10.4714C42.2737 10.4667 42.5484 10.613 42.7208 10.9143C42.969 11.3481 43.378 11.921 43.6908 11.5313C43.9663 11.1883 44.4603 11.1847 44.8113 11.4406C45.1642 11.6976 45.2899 12.1503 45.1345 12.5812C45.0912 12.702 45.0329 12.8311 45.0359 12.9547C45.0532 13.6379 44.7812 14.066 44.2612 14.142C43.898 14.1953 43.5894 14.0299 43.3932 13.6962C43.2414 13.4381 43.0413 13.2107 42.7831 13.0592C42.6957 13.0079 42.637 12.9543 42.5914 12.883C42.4566 12.6728 42.2726 12.4869 42.0228 12.4869C41.7028 12.4869 41.3972 12.8394 41.6745 12.9991C41.7739 13.0563 41.9102 13.0822 42.0948 13.0723C42.6031 13.0446 43.0125 13.5333 43.096 14.1112C43.1728 14.6423 42.859 15.194 42.3653 15.3944C41.8604 15.5999 41.2806 15.4074 40.9804 14.9294C40.8863 14.7798 40.7425 14.6687 40.5668 14.6501C40.2285 14.6142 39.9123 14.5806 39.5923 14.5466C39.4376 14.5301 39.3043 14.5922 39.2816 14.7461C39.256 14.9188 39.3839 15.1128 39.5522 15.1591C39.7875 15.2239 39.9609 15.3772 40.0149 15.7045C40.0217 15.7441 40.1613 15.7686 40.2418 15.7833C40.5627 15.8415 40.7448 16.0379 40.7621 16.3785C40.7802 16.7251 40.597 16.9441 40.2941 17.0245C39.9746 17.1096 39.7621 16.9279 39.6055 16.6463C39.5555 16.5568 39.4821 16.4273 39.4069 16.4166C38.9143 16.3469 38.3675 16.0155 37.8706 16.0385C37.206 16.0693 36.76 15.6984 36.574 14.9468C36.5007 14.6504 36.2185 14.4853 35.9153 14.5215C35.4585 14.5757 35.0029 14.2224 34.9009 13.7258C34.8554 13.504 34.7678 13.4026 34.5661 13.304C34.5039 13.2737 34.4451 13.2358 34.3876 13.1924C34.1704 13.0284 33.9035 13.1523 33.8644 13.4216C33.8399 13.5896 33.7782 13.7995 33.662 13.8906C33.5623 13.969 33.3399 13.9555 33.2105 13.8933C32.9448 13.7654 32.7025 13.5828 32.4565 13.4133C32.2695 13.2851 32.0356 13.2466 31.8374 13.3569C31.7775 13.3902 31.7159 13.4246 31.6512 13.4606C31.4584 13.568 31.3235 13.7504 31.2235 13.9472C31.0173 14.3529 30.6979 14.5689 30.2848 14.5234C29.8874 14.4796 29.6352 14.2961 29.4876 13.9204C29.4425 13.8057 29.2555 13.8122 29.1835 13.9123C29.0529 14.0945 28.8133 14.2438 28.5977 14.2929C28.2549 14.3714 27.9276 14.0854 27.8309 13.7151C27.815 13.6546 27.8048 13.5966 27.8001 13.5409C27.7692 13.1704 27.6941 12.5589 27.3308 12.4794C27.2812 12.4687 27.2168 12.523 27.1615 12.5515C26.6916 12.7947 26.2879 12.7 26.067 12.2949C25.8496 11.8949 25.9873 11.4564 26.4192 11.1713C26.5014 11.1178 26.4736 10.9816 26.377 10.9644C26.3383 10.9575 26.3047 10.9547 26.2721 10.959C25.6125 11.0449 25.0274 10.635 24.9251 10.0045C24.813 9.31261 25.2114 8.67774 25.8375 8.55061C26.4832 8.41951 27.0528 8.85754 27.2003 9.58192C27.2198 9.67697 27.2981 9.80094 27.3775 9.83262C28.0116 10.0861 28.5955 10.8101 28.8197 11.4552C28.8437 11.5245 28.9694 11.5919 29.0507 11.5958C29.3987 11.6133 29.7588 11.7974 30.0936 11.5281C30.1637 11.4718 30.2277 11.4147 30.1754 11.3415C30.1197 11.2635 30.0654 11.1875 30.0116 11.1122C29.9453 11.0193 29.8284 10.9787 29.7163 11.0003C29.029 11.1328 28.4444 10.9599 28.2985 10.5637C28.1533 10.1677 28.4479 9.3934 28.8339 9.15815C29.3438 8.84685 29.8175 9.01398 30.2855 9.66667Z" fill="#ED4135"/>
<path fill-rule="evenodd" clip-rule="evenodd" d="M40.5471 23.4744C40.8218 23.5018 41.0592 23.5164 41.294 23.5513C41.5792 23.594 41.6541 23.4416 41.6379 23.1806C41.6253 22.976 41.6139 22.7714 41.6023 22.5575C41.5865 22.2656 41.3575 22.0334 41.1739 21.8061C41.1162 21.7348 41.0695 21.6528 41.033 21.5626C40.9447 21.344 40.7356 21.1676 40.5017 21.1972C40.3113 21.2213 40.177 21.3739 40.1381 21.5619C40.05 21.9876 39.8652 22.0837 39.2634 22.1837C39.1668 22.1992 39.2559 22.3677 39.3537 22.3687C40.087 22.3758 40.3468 22.6539 40.5471 23.4744ZM42.0207 28.6291C41.7035 28.8697 41.4651 28.9059 41.2884 28.7275C41.2314 28.6699 41.0773 28.703 41.0756 28.7839C41.0643 29.2802 40.7208 29.6228 40.2523 29.5657C39.9634 29.5309 39.671 29.4643 39.399 29.3582C38.8132 29.1293 38.5291 28.4532 38.6962 27.8009C38.727 27.6813 38.7248 27.5106 38.6642 27.4148C38.4738 27.1118 38.4204 26.8171 38.6435 26.5233C38.8606 26.2369 39.1447 26.174 39.4664 26.3268C39.5362 26.3599 39.62 26.3357 39.6756 26.282C39.7313 26.2283 39.785 26.1765 39.8354 26.1278C39.9905 25.9781 40.0461 25.7527 39.9786 25.548C39.9273 25.3926 39.8768 25.2392 39.8259 25.0849C39.6962 24.6916 39.2924 24.4585 38.9351 24.249C38.4351 23.9559 37.9496 23.6115 37.4638 23.2954C37.3059 23.1926 37.1713 23.0344 37.0689 22.804C37.0137 22.6799 36.9811 22.5607 36.9679 22.4468C36.8901 21.7789 37.0229 21.0872 37.1596 20.4289C37.2273 20.1005 37.5629 19.8439 37.7172 19.5223C37.8662 19.2126 37.859 18.7979 38.0524 18.5385C38.4328 18.028 39.1921 18.0716 39.6108 18.552C40.0168 19.0181 39.9735 19.7057 39.5209 20.137C39.4737 20.1821 39.4343 20.2365 39.397 20.2933C39.3394 20.3809 39.3682 20.5008 39.4605 20.5504C39.564 20.6059 39.6938 20.5463 39.7219 20.4322C39.7896 20.158 39.8727 19.9655 39.9894 19.8389C40.2837 19.5193 40.6989 19.1007 41.0924 18.9163C41.1519 18.8884 41.2211 18.8679 41.3009 18.8557C41.3754 18.8443 41.4533 18.8284 41.5263 18.8391C41.8371 18.8861 42.2172 19.2172 42.4723 19.5827C42.7407 19.9673 43.1573 20.2469 43.4678 20.5984C43.6231 20.7734 43.5991 21.1101 43.7131 21.3437C43.7868 21.4946 43.9535 21.6637 44.1025 21.6938C44.142 21.7019 44.1796 21.7096 44.2155 21.7172C44.9907 21.8815 46.0905 21.8746 46.5692 22.5061C46.8077 22.8214 46.7927 23.2372 46.5315 23.5379C46.3789 23.7136 46.2021 23.7967 45.997 23.7868C45.6036 23.7679 45.2115 23.7992 44.9084 24.0507C44.5393 24.3565 44.1202 24.4052 43.6811 24.2187C43.2484 24.0353 43.0422 24.0899 42.7469 24.4575C42.6901 24.5284 42.622 24.6226 42.5467 24.6377C42.0151 24.7429 42.3138 25.441 42.5434 25.9318C42.5605 25.9683 42.575 26.0053 42.5866 26.0433C42.6848 26.3688 42.5038 26.6726 42.196 26.7791C41.968 26.8579 41.9146 26.9775 41.883 27.1981C41.8554 27.3912 41.7678 27.5751 41.7012 27.7617C41.6932 27.7841 41.6986 27.809 41.7148 27.8264C41.7409 27.8545 41.7859 27.8538 41.8123 27.8261C41.8627 27.7734 41.9147 27.7215 41.9503 27.6595C42.2939 27.0643 43.0294 27.0239 43.376 27.5847C43.5855 27.9233 43.5584 28.3277 43.306 28.6291C43.0497 28.9348 42.637 29.0168 42.2957 28.8235C42.2062 28.7728 42.1264 28.7047 42.0207 28.6291Z" fill="#ED4135"/>
<path fill-rule="evenodd" clip-rule="evenodd" d="M31.2345 46.4084C31.1592 46.3229 31.0991 46.2237 31.0724 46.113C30.9255 45.5049 31.1737 45.1181 31.7902 45.0373C32.1311 44.9925 32.0645 44.8717 31.9053 44.6602C31.3688 43.9489 31.642 43.0432 32.452 42.8206C32.9814 42.6756 33.5375 43.0218 33.7083 43.5957C33.7448 43.718 33.7813 43.8634 33.8648 43.9442C34.3054 44.3691 34.3266 44.6567 33.885 44.9681C33.7886 45.0361 33.7321 45.1585 33.7475 45.2754C33.7629 45.3913 33.8443 45.4774 33.9567 45.5093C34.0181 45.5267 34.0787 45.5439 34.1389 45.561C34.4303 45.6438 34.7123 45.4643 34.9244 45.248C35.059 45.1109 35.2365 45.0272 35.4759 45.0412C35.7779 45.0591 35.9834 45.2217 36.1087 45.4742C36.1706 45.599 36.2953 45.6834 36.4294 45.6453C36.6585 45.5802 36.6861 45.2391 36.5281 45.061C36.357 44.8681 36.2924 44.6129 36.4094 44.2507C36.5196 43.9089 36.8737 43.699 37.1988 43.7398C37.4102 43.7666 37.5715 43.8601 37.6865 44.0256C37.9301 44.3758 38.1731 44.879 38.4821 44.585C38.8178 44.2654 39.1394 44.3291 39.6041 44.7292C39.6019 44.7268 39.5979 44.7293 39.5991 44.7323C39.7487 45.1097 39.605 45.6209 40.0572 45.8604C40.059 45.8613 40.061 45.8593 40.0599 45.8576C40.0587 45.8557 40.0558 45.8572 40.0564 45.8594C40.2213 46.4753 40.1608 46.8878 39.8459 47.1628C39.6967 47.2931 39.6857 47.5937 39.8068 47.7505C39.9499 47.9359 39.9745 48.1568 39.8716 48.397C39.574 49.094 38.2231 49.2922 37.6747 48.769C37.6585 48.7536 37.6426 48.7372 37.6269 48.7198C37.3756 48.4401 37.3632 48.0243 37.5976 47.7284C37.8632 47.3937 38.2025 47.3668 38.6279 47.6573C38.6876 47.6981 38.757 47.7067 38.8142 47.6626C38.9192 47.5819 38.8955 47.4036 38.7773 47.3439C38.51 47.209 38.3354 47.0024 38.246 46.7297C38.1677 46.4908 37.9048 46.2393 37.8669 46.4878C37.8611 46.5259 37.858 46.5686 37.8561 46.6147C37.8339 47.1367 37.4937 47.5787 37.0419 47.5601C36.2481 47.5266 36.2512 48.7629 35.5156 49.0631C35.5013 49.069 35.4865 49.0745 35.4714 49.0798C35.1298 49.1978 34.7599 49.033 34.5981 48.6904C34.4148 48.3007 34.5396 47.9843 34.9656 47.6573C34.9889 47.6395 35.0038 47.6079 35.0054 47.5787C35.0118 47.4601 34.6504 47.3555 34.5531 47.4237C34.357 47.5611 34.1112 47.6201 33.8116 47.5882C33.7315 47.5796 33.6528 47.6203 33.6181 47.6931C33.3211 48.3179 33.0725 48.4812 32.6424 48.3728C32.3275 48.2936 32.0709 47.9447 32.0739 47.6001C32.0772 47.2135 32.3069 46.9508 32.7763 46.8118C32.8913 46.7778 32.9787 46.6819 32.9844 46.5621C32.9905 46.4355 32.9056 46.316 32.7799 46.2998C32.5705 46.2729 32.3825 46.3009 32.1804 46.4844C31.8925 46.7466 31.534 46.6678 31.2345 46.4084Z" fill="#ED4135"/>
<path fill-rule="evenodd" clip-rule="evenodd" d="M40.9211 40.0834C40.1893 39.9531 39.8729 39.6358 39.883 39.0588C39.891 38.5784 40.2224 38.1962 40.6833 38.1348C40.7004 38.1325 40.7172 38.1307 40.7339 38.1293C41.6199 38.0554 42.6019 39.0203 42.8938 39.86C42.9212 39.94 43.0194 40.0184 43.1011 40.0485C43.988 40.3729 44.2176 40.9575 43.7605 41.7278C43.6714 41.8779 43.6547 42.0866 43.7195 42.2487C43.7961 42.4405 43.9714 42.5384 44.1778 42.5303C44.4053 42.5213 44.6247 42.5149 44.8352 42.5579C45.006 42.5927 45.1784 42.7896 45.2871 42.9583C45.5339 43.3397 45.4715 43.8086 45.1742 44.1429C44.926 44.422 44.6203 44.505 44.2484 44.4011C43.9974 44.331 43.7198 44.3424 43.5186 44.5081C43.5113 44.5141 43.5041 44.52 43.4968 44.526C43.3305 44.6628 43.2477 44.8581 43.2869 45.0698C43.3494 45.4079 43.7112 45.6101 44.0338 45.7291C44.2464 45.8075 44.4321 45.9739 44.5692 46.2483C44.8262 46.7624 44.5831 47.4309 44.0519 47.5957C43.7701 47.6828 43.5074 47.7568 43.2847 47.9723C43.1188 48.1329 42.9308 48.2572 42.8883 48.4842C42.7986 48.9626 42.5993 49.1655 42.2252 49.1925C41.8388 49.221 41.4983 48.9676 41.4249 48.5977C41.3481 48.2102 41.4801 47.9235 41.8427 47.7104C42.0291 47.6009 42.1745 47.4303 42.1909 47.2147C42.2063 47.012 42.0913 46.8242 41.9695 46.6614C41.842 46.491 41.8243 46.2822 41.978 46.017C42.0092 45.9627 42.004 45.8669 41.9836 45.8008C41.8083 45.2271 41.8355 44.9702 42.1847 44.7178C42.3491 44.599 42.4491 44.4042 42.4074 44.2057C42.3907 44.126 42.3739 44.046 42.3569 43.965C42.3157 43.7691 42.0972 43.6855 41.9216 43.7817C41.5224 44.0007 41.028 43.9025 40.7345 43.5516C40.4493 43.2106 40.4094 42.6989 40.6378 42.3151C40.8801 41.9072 41.3301 41.7377 41.7677 41.8731C41.9174 41.9195 42.1751 42.1377 42.2019 41.8692C42.2237 41.6529 42.0273 41.281 41.8392 41.1971C41.2003 40.9107 41.0355 40.7749 40.9211 40.0834Z" fill="#ED4135"/>
<path fill-rule="evenodd" clip-rule="evenodd" d="M40.2221 35.0825C40.3664 34.9976 40.5 34.9193 40.6363 34.8393C40.7761 34.7573 40.8473 34.5685 40.8227 34.4082C40.8016 34.271 40.7148 34.1848 40.5866 34.1317C40.2869 34.0074 40.0164 33.8941 39.7435 33.7874C39.6675 33.7581 39.5787 33.749 39.4978 33.7553C39.0151 33.7929 38.6829 33.5371 38.6577 33.1006C38.6317 32.6499 38.9011 32.3794 39.4068 32.347C39.4971 32.3411 39.55 32.241 39.5201 32.1555C39.5024 32.1049 39.4857 32.0564 39.4704 32.0075C39.3406 31.5937 39.4437 31.1806 39.7781 30.9303C39.9467 30.8039 40.0807 30.6926 40.0393 30.4538C40.0347 30.4289 40.0359 30.396 40.0483 30.375C40.1337 30.2293 40.1928 30.0415 40.3162 29.9493C40.7094 29.6546 41.1007 29.3227 41.5439 29.1473C41.8708 29.0178 42.2343 29.4011 42.2952 29.7813C42.3566 30.1619 42.1459 30.5326 41.7881 30.674C41.443 30.8099 41.2786 31.2139 41.2079 31.5489C41.034 32.3763 42.3937 32.8202 42.8841 33.5089C42.9946 33.6641 43.0516 33.8561 43.0666 34.0931C43.0704 34.1545 43.0706 34.2141 43.0672 34.2719C43.0094 35.2428 42.2101 36.4634 41.2884 36.774C40.926 36.8961 40.6463 36.8053 40.422 36.6165C40.1895 36.4208 39.9204 36.2629 39.6189 36.3008C39.3434 36.3353 39.1111 36.5262 38.9278 36.7349C38.7874 36.8947 38.6006 37.023 38.3522 37.071C37.518 37.2318 36.8886 36.5083 37.0609 35.6187C37.0869 35.4853 37.0379 35.2872 36.9522 35.1858C36.5458 34.707 36.4837 34.1696 36.8129 33.6824C37.1185 33.2301 37.6565 33.0666 38.1343 33.2804C38.6317 33.5034 38.8759 34.046 38.7645 34.6484C38.7258 34.8599 38.9984 34.9879 39.1888 34.8881C39.618 34.6632 39.8078 34.7386 40.2221 35.0825Z" fill="#ED4135"/>
<path fill-rule="evenodd" clip-rule="evenodd" d="M10.735 38.4573C10.706 38.4167 10.6799 38.374 10.6612 38.3278C10.6189 38.2234 10.5764 38.1186 10.5332 38.0119C10.3556 37.5738 9.90244 37.1746 9.63067 37.5614C9.42148 37.8596 9.12692 37.9733 8.80247 37.9567C8.61355 37.9471 8.41638 38.0076 8.30138 38.1578C8.18356 38.3117 8.18174 38.5163 8.2645 38.6916C8.45404 39.0929 8.41684 39.3656 8.15916 39.6395C7.89767 39.9179 7.52443 39.9611 7.21478 39.7492C6.88336 39.5229 6.80652 39.1948 6.97484 38.6573C7.00141 38.5725 6.951 38.4619 6.8793 38.4094C6.82532 38.3698 6.7781 38.3766 6.71599 38.4016C6.42667 38.5176 6.17912 38.652 5.92124 38.6791C5.38659 38.7353 4.90801 38.2953 4.83388 37.7598C4.75149 37.1586 5.04985 36.6525 5.57735 36.4659C5.72333 36.4145 5.88851 36.3412 5.9837 36.2232C6.32834 35.7962 6.68841 35.7923 7.02026 36.2461C7.08269 36.3309 7.16494 36.288 7.15945 36.1828C7.12512 35.525 7.29077 35.0041 7.96803 34.7918C8.18264 34.7245 8.37624 34.724 8.55239 34.785C9.09441 34.9727 9.61806 35.1887 10.1845 35.0984C10.6484 35.0243 11.0198 35.2849 11.1804 35.742C11.2847 36.0382 11.4235 36.0754 11.6838 36.058C12.4021 36.0093 12.9958 36.4933 13.138 37.2069C13.278 37.9107 12.8916 38.6418 12.2272 38.868C11.659 39.0609 11.1451 38.9452 10.735 38.4573Z" fill="#ED4135"/>
<path fill-rule="evenodd" clip-rule="evenodd" d="M43.3281 30.7233C42.8285 30.1225 42.7754 29.5938 43.1543 29.1257C43.494 28.7059 44.0671 28.6203 44.5009 28.9253C44.8971 29.2032 45.0273 29.6321 44.8831 30.1539C44.8183 30.3887 44.8392 30.6421 44.9565 30.8555C45.0284 30.9862 45.0801 31.1096 45.1114 31.2272C45.2408 31.7129 45.4472 32.9215 45.5077 33.4204C45.5641 33.8814 45.2767 34.346 44.8323 34.5128C44.388 34.6791 43.885 34.4724 43.6554 34.0284C43.3036 33.3484 43.021 32.153 43.1064 31.3922C43.1285 31.1949 43.203 30.9738 43.3281 30.7233Z" fill="#ED4135"/>
<path fill-rule="evenodd" clip-rule="evenodd" d="M44.168 37.2545C44.2602 37.6232 44.3779 37.9317 44.402 38.2481C44.4182 38.462 44.3632 38.7575 44.2278 38.8878C44.0942 39.0165 43.8184 39.0212 43.6081 39.0105C43.4034 39.0002 43.2059 38.8834 43.0001 38.845C42.4967 38.7507 42.1016 38.2592 42.1261 37.7333C42.152 37.1772 42.6001 36.6727 43.119 36.6291C43.4255 36.6032 43.6604 36.3659 43.7166 36.0634C43.8313 35.445 44.2155 35.0892 44.8027 35.0948C45.3915 35.1007 45.8532 35.6231 45.7975 36.2216C45.7249 37.001 45.1236 37.4129 44.168 37.2545Z" fill="#ED4135"/>
<path fill-rule="evenodd" clip-rule="evenodd" d="M27.8726 43.3768C27.9892 43.4153 28.0984 43.4446 28.2026 43.487C28.6116 43.6537 28.8034 44.0822 28.6571 44.4941C28.5017 44.9317 28.0679 45.1543 27.6627 44.9551C27.4553 44.8533 27.3116 44.8565 27.1054 44.9559C26.8097 45.0985 26.5034 45.0363 26.2506 44.8003C25.9831 44.5503 25.9425 44.2347 26.0049 43.8798C26.0297 43.7388 26.0508 43.5642 25.9951 43.4462C25.7284 42.8834 25.7784 42.3495 26.1652 41.9709C26.5192 41.6251 27.0245 41.5633 27.4403 41.8156C27.8959 42.0921 28.0705 42.6105 27.9117 43.2137C27.8982 43.264 27.8873 43.3151 27.8726 43.3768Z" fill="#ED4135"/>
<path fill-rule="evenodd" clip-rule="evenodd" d="M39.5001 41.0296C39.4704 41.0394 39.4534 41.0706 39.4619 41.1007C39.5379 41.3716 39.6453 41.6403 39.6644 41.9152C39.6971 42.3869 39.7092 42.8705 39.6433 43.3359C39.5839 43.7521 39.1847 44.0297 38.7761 44.0622C38.4002 44.0919 38.0108 43.8598 37.8385 43.4887C37.6518 43.0871 37.6763 42.676 37.9709 42.3671C38.2516 42.0725 38.2335 41.8958 37.9558 41.6174C37.6579 41.3196 37.6413 40.7077 37.8546 40.3833C38.0627 40.0669 38.4581 39.956 38.881 40.0954C39.2893 40.2299 39.5259 40.5464 39.5399 40.9735C39.5408 40.999 39.5243 41.0216 39.5001 41.0296Z" fill="#ED4135"/>
<path fill-rule="evenodd" clip-rule="evenodd" d="M5.78365 48.3873C5.33854 48.9133 4.90021 49.017 4.53525 48.6915C3.855 48.0844 4.03212 46.535 4.79117 46.03C4.90269 45.9557 5.04044 45.8904 5.20498 45.832C5.3013 45.7979 5.36563 45.6728 5.46082 45.6241C5.55602 45.5757 5.69297 45.5207 5.77161 45.5595C5.87056 45.6074 5.97779 45.7397 5.9951 45.8506C6.07673 46.3724 6.56829 46.6805 6.92849 47.0668C7.0271 47.1725 7.09443 47.3138 7.12008 47.5005C7.15545 47.7615 7.03392 48.1172 6.86536 48.3231C6.56398 48.6919 6.15387 48.5869 5.78365 48.3873Z" fill="#ED4135"/>
<path fill-rule="evenodd" clip-rule="evenodd" d="M14.4844 50.0007C13.9754 49.9956 13.5668 49.6387 13.452 49.1009C13.3534 48.6383 13.5875 48.1116 14.0311 47.9021C14.2395 47.8034 14.3354 47.6914 14.3829 47.4517C14.4577 47.0763 14.7158 46.8466 15.0842 46.8137C15.4348 46.7828 15.7106 46.9484 15.8544 47.2906C16.0018 47.6407 15.9375 47.9571 15.6933 48.2569C15.5978 48.3745 15.5402 48.5734 15.5496 48.7302C15.5929 49.4728 15.1575 50.0079 14.4844 50.0007Z" fill="#ED4135"/>
<path fill-rule="evenodd" clip-rule="evenodd" d="M35.9879 43.7068C36.0018 43.8391 36.0214 43.9452 36.0225 44.051C36.0263 44.392 35.8697 44.6146 35.5507 44.6811C35.2128 44.7516 34.963 44.5936 34.8667 44.2605C34.8038 44.0435 34.7327 43.9108 34.5239 43.8019C34.1255 43.5936 34.1138 43.0826 34.4528 42.7591C34.5589 42.6585 34.6624 42.5345 34.7181 42.3987C34.9126 41.9226 35.2847 41.6291 35.7019 41.6549C36.1094 41.6802 36.5037 42.0058 36.6083 42.4026C36.7347 42.8822 36.5658 43.3151 36.1369 43.6094C36.0944 43.6383 36.0511 43.6656 35.9879 43.7068Z" fill="#ED4135"/>
<path fill-rule="evenodd" clip-rule="evenodd" d="M16.9278 7.55858C16.6753 7.80096 16.3984 7.96295 16.0891 7.68334C15.8608 7.477 15.7987 7.20293 15.9496 6.92253C16.1873 6.48026 16.9171 6.17065 17.3764 5.96769C17.6626 5.84123 18.0055 5.83512 18.3346 5.8219C18.4877 5.81556 18.7541 6.05319 18.788 6.21954C18.8572 6.56331 18.8719 6.95263 18.7899 7.29085C18.6213 7.98513 17.7522 8.24573 17.1961 7.80968C17.1054 7.73839 17.0256 7.65086 16.9278 7.55858Z" fill="#ED4135"/>
<path fill-rule="evenodd" clip-rule="evenodd" d="M44.1748 17.8807C43.6601 17.8823 43.2444 17.5341 43.1074 17.0173C43.0705 16.8802 42.9889 16.7321 42.8854 16.6438C42.6409 16.4347 42.56 16.1891 42.7045 15.9028C42.8546 15.6046 43.1082 15.5852 43.3986 15.6723C43.5266 15.7107 43.6793 15.6937 43.8133 15.6644C44.2542 15.5673 44.6512 15.6192 44.9702 15.9883C45.2588 16.3222 45.3333 16.8196 45.1471 17.2264C44.9522 17.6517 44.6278 17.8751 44.1748 17.8807Z" fill="#ED4135"/>
<path fill-rule="evenodd" clip-rule="evenodd" d="M43.9261 7.86203C43.2771 7.86757 42.7887 7.35627 42.7891 6.67269C42.7894 6.01841 43.2763 5.4885 43.8903 5.47345C44.5111 5.4584 45.0488 6.00178 45.0597 6.65526C45.0706 7.31627 44.5627 7.85688 43.9261 7.86203Z" fill="#ED4135"/>
<path fill-rule="evenodd" clip-rule="evenodd" d="M2.44532 21.1138C2.44344 20.4726 2.92917 19.9463 3.52703 19.9419C4.11247 19.9372 4.63094 20.479 4.63508 21.0996C4.63959 21.7242 4.13505 22.2616 3.5402 22.2667C2.93783 22.2723 2.4472 21.7554 2.44532 21.1138Z" fill="#ED4135"/>
<path fill-rule="evenodd" clip-rule="evenodd" d="M31.3369 42.3275C30.73 42.3306 30.2266 41.809 30.2345 41.1856C30.2424 40.5836 30.7443 40.0557 31.3181 40.047C31.9088 40.0375 32.4099 40.571 32.4065 41.2054C32.4032 41.8332 31.9351 42.3243 31.3369 42.3275Z" fill="#ED4135"/>
<path fill-rule="evenodd" clip-rule="evenodd" d="M43.6908 20.2918C43.0892 20.287 42.6343 19.8031 42.6328 19.1658C42.6317 18.525 43.1265 18.0014 43.7209 18.0149C44.3045 18.0284 44.7865 18.5436 44.7891 19.1575C44.7921 19.7967 44.3082 20.2969 43.6908 20.2918Z" fill="#ED4135"/>
<path fill-rule="evenodd" clip-rule="evenodd" d="M44.452 27.485C43.8391 27.4811 43.394 27.0086 43.3985 26.3662C43.4026 25.7381 43.882 25.2402 44.47 25.2537C45.0299 25.266 45.5107 25.7769 45.5179 26.3666C45.5254 26.9848 45.0449 27.489 44.452 27.485Z" fill="#ED4135"/>
<path fill-rule="evenodd" clip-rule="evenodd" d="M39.6014 44.7269C39.6022 44.7277 39.6037 44.7272 39.6036 44.726C39.6006 44.5404 39.5663 44.3476 39.6022 44.1709C39.6763 43.8049 40.077 43.5384 40.4175 43.5931C40.8043 43.6548 41.0925 43.9871 41.0692 44.4026C41.056 44.6339 41.0951 44.7776 41.2806 44.9309C41.626 45.2165 41.6264 45.7448 41.3235 46.0711C41.0383 46.3781 40.5601 46.3844 40.2569 46.0822C40.1878 46.0129 40.1274 45.9347 40.0634 45.8597C40.0624 45.8584 40.0606 45.8598 40.0614 45.8611C40.0621 45.8622 40.0637 45.8618 40.0638 45.8605C40.1016 45.3948 39.987 44.9985 39.6031 44.725C39.6018 44.7241 39.6003 44.7257 39.6014 44.7269Z" fill="#ED4135"/>
<path fill-rule="evenodd" clip-rule="evenodd" d="M9.9592 47.761C10.3859 48.1325 10.4769 48.4022 10.2884 48.7254C10.1172 49.0192 9.85799 49.0977 9.55925 49.0006C8.96391 48.8075 8.64775 47.9933 8.55395 47.3745C8.53292 47.2358 8.55892 47.0917 8.62992 46.938C8.79961 46.5709 9.20859 46.397 9.56489 46.5404C10.0186 46.7237 10.1511 47.1194 9.9592 47.761Z" fill="#ED4135"/>
<path fill-rule="evenodd" clip-rule="evenodd" d="M5.20328 35.1963C4.87632 35.8371 4.44777 36.0213 4.01772 35.7377C3.65615 35.4997 3.55268 34.9721 3.79686 34.6081C3.90606 34.4453 4.04231 34.3428 4.19803 34.3018C4.69134 34.1718 5.45899 34.0466 5.81769 34.4093C5.9347 34.5281 5.98813 34.8402 5.92643 35.0046C5.80226 35.3365 5.50954 35.3515 5.20328 35.1963Z" fill="#ED4135"/>
<path fill-rule="evenodd" clip-rule="evenodd" d="M39.0858 9.3439C39.0719 9.76371 38.9078 9.99421 38.614 10.0873C38.3062 10.1851 38.0379 10.0873 37.8427 9.80292C37.7129 9.61361 37.5853 9.42152 37.4431 9.2429C37.1982 8.93438 37.2188 8.49793 37.5025 8.23258C37.7843 7.9692 38.2159 7.99059 38.4582 8.29595C38.6403 8.52526 38.813 8.76447 38.9688 9.01399C39.0414 9.13082 39.0647 9.28172 39.0858 9.3439Z" fill="#ED4135"/>
<path fill-rule="evenodd" clip-rule="evenodd" d="M15.4367 7.67871C15.9006 7.89773 16.2957 8.0308 16.6317 8.25932C16.9052 8.44546 16.8845 8.8534 16.6656 9.11677C16.4473 9.37896 16.0662 9.40866 15.8036 9.19598C15.6185 9.04667 15.3874 8.94409 15.2411 8.76349C15.109 8.60032 14.9664 8.33417 15.007 8.15912C15.0522 7.96466 15.299 7.82169 15.4367 7.67871Z" fill="#ED4135"/>
<path fill-rule="evenodd" clip-rule="evenodd" d="M24.4322 49.6909C24.4349 50.1389 24.1211 50.4767 23.694 50.4854C23.2346 50.4949 22.9163 50.1745 22.9141 49.7008C22.9122 49.247 23.2218 48.9087 23.6474 48.8996C24.0895 48.8897 24.4296 49.2327 24.4322 49.6909Z" fill="#ED4135"/>
<path fill-rule="evenodd" clip-rule="evenodd" d="M50.3915 30.3796C49.9739 30.3724 49.6292 30.0053 49.6409 29.5788C49.6526 29.1487 50.0093 28.7926 50.4201 28.8009C50.8321 28.8092 51.1775 29.1823 51.1689 29.6097C51.1602 30.0453 50.8152 30.3867 50.3915 30.3796Z" fill="#ED4135"/>
<path fill-rule="evenodd" clip-rule="evenodd" d="M39.539 38.1007C39.5457 38.5463 39.2233 38.9095 38.8098 38.9222C38.4061 38.9344 38.0479 38.5701 38.0392 38.138C38.0302 37.6976 38.3587 37.3336 38.7741 37.3225C39.1921 37.3118 39.5326 37.658 39.539 38.1007Z" fill="#ED4135"/>
<path fill-rule="evenodd" clip-rule="evenodd" d="M1.22666 38.5841C1.23268 38.1413 1.57469 37.792 1.99006 37.8031C2.40469 37.8146 2.73503 38.1809 2.72638 38.6198C2.71773 39.0511 2.35879 39.4174 1.9562 39.4055C1.5427 39.3933 1.22026 39.0301 1.22666 38.5841Z" fill="#ED4135"/>
<path fill-rule="evenodd" clip-rule="evenodd" d="M12.0604 25.5571C11.6431 25.5591 11.2928 25.2034 11.2891 24.7741C11.2857 24.3567 11.648 23.9697 12.0472 23.9654C12.4468 23.961 12.8118 24.3381 12.8163 24.7606C12.8208 25.1943 12.4788 25.5551 12.0604 25.5571Z" fill="#ED4135"/>
<path fill-rule="evenodd" clip-rule="evenodd" d="M29.1837 8.66629C28.7593 8.67263 28.4154 8.33163 28.4064 7.89558C28.3978 7.4722 28.7484 7.09358 29.1563 7.08605C29.5634 7.07853 29.9246 7.44052 29.9355 7.86667C29.946 8.29321 29.601 8.65996 29.1837 8.66629Z" fill="#ED4135"/>
<path fill-rule="evenodd" clip-rule="evenodd" d="M3.65013 11.4201C3.65013 11.8851 3.32167 12.2213 2.87431 12.2154C2.44049 12.2091 2.14138 11.8859 2.14063 11.4225C2.14025 10.9544 2.43297 10.6379 2.87167 10.6324C3.32581 10.6268 3.65013 10.9548 3.65013 11.4201Z" fill="#ED4135"/>
<path fill-rule="evenodd" clip-rule="evenodd" d="M11.5979 28.931C11.1768 28.9291 10.8326 28.5722 10.836 28.1421C10.839 27.7183 11.1979 27.3484 11.6046 27.3496C12.0117 27.3512 12.3677 27.7251 12.3658 28.1492C12.3639 28.5829 12.02 28.933 11.5979 28.931Z" fill="#ED4135"/>
<path fill-rule="evenodd" clip-rule="evenodd" d="M35.5724 51.63C35.5716 52.0799 35.2477 52.4193 34.821 52.4173C34.4045 52.4158 34.061 52.0573 34.0625 51.6256C34.064 51.1935 34.409 50.8375 34.8255 50.8379C35.2518 50.8387 35.5731 51.1797 35.5724 51.63Z" fill="#ED4135"/>
<path fill-rule="evenodd" clip-rule="evenodd" d="M11.8901 33.9572C12.3171 33.9492 12.6584 34.2863 12.6685 34.7255C12.6787 35.1477 12.3277 35.5307 11.9217 35.5398C11.5183 35.5485 11.1534 35.1837 11.141 34.7584C11.1282 34.3314 11.4706 33.9651 11.8901 33.9572Z" fill="#ED4135"/>
<path fill-rule="evenodd" clip-rule="evenodd" d="M3.06251 40.8562C3.06063 40.4106 3.39097 40.0506 3.80485 40.0479C4.2063 40.0451 4.56374 40.4217 4.56562 40.8487C4.5675 41.2756 4.21496 41.6542 3.81199 41.6582C3.40339 41.6622 3.06439 41.2998 3.06251 40.8562Z" fill="#ED4135"/>
<path fill-rule="evenodd" clip-rule="evenodd" d="M25.672 0.82323C25.6641 0.385198 25.9971 0.0117229 26.4064 0.000237439C26.7996 -0.010852 27.1747 0.368168 27.1857 0.787189C27.1966 1.20344 26.8399 1.59711 26.4403 1.60979C26.0332 1.62246 25.6803 1.26087 25.672 0.82323Z" fill="#ED4135"/>
<path fill-rule="evenodd" clip-rule="evenodd" d="M24.7579 13.1756C24.7631 12.7241 25.0867 12.397 25.5198 12.4049C25.9385 12.4128 26.2768 12.7756 26.2659 13.2061C26.2553 13.6351 25.8983 13.9943 25.4908 13.9864C25.0739 13.9788 24.7526 13.6232 24.7579 13.1756Z" fill="#ED4135"/>
<path fill-rule="evenodd" clip-rule="evenodd" d="M41.1016 16.5728C41.0989 16.1205 41.4188 15.7772 41.8435 15.7764C42.2649 15.7756 42.6002 16.1237 42.6021 16.5637C42.6039 16.9958 42.26 17.3653 41.8514 17.3705C41.4413 17.3752 41.1042 17.0168 41.1016 16.5728Z" fill="#ED4135"/>
<path fill-rule="evenodd" clip-rule="evenodd" d="M46.1279 9.31001C45.7005 9.31001 45.3739 8.96901 45.375 8.52346C45.3758 8.08305 45.7125 7.73017 46.1301 7.73096C46.541 7.73215 46.892 8.09849 46.8917 8.52623C46.8913 8.95832 46.5489 9.30961 46.1279 9.31001Z" fill="#ED4135"/>
<path fill-rule="evenodd" clip-rule="evenodd" d="M6.39459 6.25392C5.96717 6.24957 5.64849 5.905 5.65639 5.45509C5.66392 5.01627 6.01044 4.65903 6.41905 4.66814C6.82126 4.67725 7.17418 5.05983 7.16816 5.48083C7.16176 5.91411 6.81749 6.25788 6.39459 6.25392Z" fill="#ED4135"/>
<path fill-rule="evenodd" clip-rule="evenodd" d="M33.1358 5.93109C32.7155 5.92872 32.3728 5.57346 32.375 5.14295C32.3769 4.72314 32.7396 4.34531 33.1407 4.3457C33.5474 4.3461 33.8958 4.7168 33.8951 5.1481C33.8939 5.59366 33.5643 5.93386 33.1358 5.93109Z" fill="#ED4135"/>
<path fill-rule="evenodd" clip-rule="evenodd" d="M43.8516 3.53217C43.8554 3.09215 44.1974 2.72977 44.6041 2.73492C45.004 2.74007 45.36 3.12225 45.3577 3.54405C45.3562 3.97455 45.0071 4.33338 44.5924 4.3314C44.1673 4.32942 43.8478 3.98485 43.8516 3.53217Z" fill="#ED4135"/>
<path fill-rule="evenodd" clip-rule="evenodd" d="M41.9927 5.12997C41.5657 5.12482 41.2522 4.78303 41.2579 4.32876C41.2632 3.88914 41.6078 3.53072 42.0164 3.54022C42.425 3.54933 42.7644 3.92162 42.7591 4.35411C42.7531 4.79451 42.4167 5.13512 41.9927 5.12997Z" fill="#ED4135"/>
<path fill-rule="evenodd" clip-rule="evenodd" d="M20.5943 6.73614C20.1669 6.7294 19.8523 6.38603 19.8595 5.93413C19.8663 5.49571 20.2117 5.14243 20.624 5.15154C21.0364 5.16104 21.3667 5.52581 21.36 5.96542C21.3532 6.41177 21.0244 6.74287 20.5943 6.73614Z" fill="#ED4135"/>
<path fill-rule="evenodd" clip-rule="evenodd" d="M19.9845 48.5622C19.9886 49.0188 19.6764 49.3535 19.2444 49.3559C18.8155 49.3582 18.4878 49.0232 18.4844 48.5784C18.481 48.1396 18.8155 47.7788 19.2294 47.774C19.6451 47.7693 19.9807 48.119 19.9845 48.5622Z" fill="#ED4135"/>
<path fill-rule="evenodd" clip-rule="evenodd" d="M0.74686 49.8395C0.317185 49.8383 -0.00187296 49.5009 8.2757e-06 49.0494C0.00151327 48.6082 0.33675 48.2557 0.753633 48.2577C1.16939 48.2596 1.50199 48.6153 1.50086 49.0565C1.49936 49.506 1.17691 49.8407 0.74686 49.8395Z" fill="#ED4135"/>
<path fill-rule="evenodd" clip-rule="evenodd" d="M38.3284 30.4131C38.7543 30.4115 39.0782 30.7501 39.0797 31.1989C39.0809 31.648 38.7588 31.9914 38.3348 31.9929C37.9145 31.9941 37.58 31.646 37.5781 31.2056C37.5763 30.7644 37.9073 30.4147 38.3284 30.4131Z" fill="#ED4135"/>
<path fill-rule="evenodd" clip-rule="evenodd" d="M44.5923 48.7544C44.598 49.2546 44.4475 49.4954 44.1092 49.5132C43.8131 49.5291 43.6201 49.3801 43.561 49.0732C43.4462 48.4757 44.0308 47.6661 44.6372 47.6167C44.6469 47.6159 44.6568 47.6153 44.6668 47.6149C44.9268 47.605 45.1815 47.8514 45.2056 48.1361C45.2316 48.4459 45.0314 48.6474 44.5923 48.7544Z" fill="#ED4135"/>
<path fill-rule="evenodd" clip-rule="evenodd" d="M45.5989 51.1303C45.1986 51.1311 44.8731 50.8107 44.875 50.4174C44.8773 50.0324 45.2148 49.7029 45.6042 49.7061C45.9996 49.71 46.2795 49.9956 46.2878 50.4039C46.2961 50.836 46.0181 51.1295 45.5989 51.1303Z" fill="#ED4135"/>
<path fill-rule="evenodd" clip-rule="evenodd" d="M37.5531 6.19505C37.5524 6.60497 37.2702 6.89923 36.8789 6.89686C36.4981 6.89527 36.1994 6.582 36.2032 6.18753C36.2065 5.80296 36.5226 5.47345 36.8868 5.47385C37.2593 5.47464 37.5535 5.79306 37.5531 6.19505Z" fill="#ED4135"/>
<path fill-rule="evenodd" clip-rule="evenodd" d="M44.997 52.2902C45.3717 52.2969 45.675 52.6228 45.6667 53.0102C45.6588 53.3931 45.3356 53.7155 44.9695 53.7064C44.5854 53.6969 44.3062 53.3884 44.3126 52.9809C44.3194 52.5729 44.6061 52.2834 44.997 52.2902Z" fill="#ED4135"/>
<path fill-rule="evenodd" clip-rule="evenodd" d="M19.1217 9.33919C19.1217 9.67781 18.8358 9.97525 18.5039 9.9804C18.1638 9.98594 17.8846 9.71029 17.8752 9.35979C17.8658 8.99185 18.1484 8.69442 18.5036 8.69878C18.8358 8.70313 19.1214 8.99898 19.1217 9.33919Z" fill="#ED4135"/>
<path fill-rule="evenodd" clip-rule="evenodd" d="M5.93047 39.248C6.25254 39.2381 6.55015 39.5399 6.55391 39.8805C6.5573 40.2168 6.2627 40.5312 5.94439 40.5308C5.63436 40.5304 5.36384 40.2496 5.3518 39.9154C5.33863 39.5562 5.59674 39.2583 5.93047 39.248Z" fill="#ED4135"/>
<path fill-rule="evenodd" clip-rule="evenodd" d="M7.17201 40.0493C7.49257 40.0505 7.78679 40.367 7.78002 40.7024C7.77325 41.0391 7.46774 41.346 7.15131 41.3341C6.84128 41.3226 6.57528 41.0323 6.57039 40.7008C6.56512 40.3519 6.84617 40.0481 7.17201 40.0493Z" fill="#ED4135"/>
<path fill-rule="evenodd" clip-rule="evenodd" d="M6.85382 33.9576C7.19282 33.9524 7.47387 34.234 7.47387 34.5798C7.47425 34.9192 7.18341 35.2198 6.85796 35.217C6.54078 35.2143 6.27816 34.9418 6.26612 34.6035C6.25295 34.2396 6.50504 33.9631 6.85382 33.9576Z" fill="#ED4135"/>
<path fill-rule="evenodd" clip-rule="evenodd" d="M43.2373 8.05365C43.5699 8.06117 43.8404 8.35861 43.8299 8.70555C43.8194 9.05684 43.5406 9.32338 43.1982 9.30952C42.8708 9.29645 42.6323 9.03308 42.6331 8.68455C42.6334 8.32454 42.9002 8.04612 43.2373 8.05365Z" fill="#ED4135"/>
<path fill-rule="evenodd" clip-rule="evenodd" d="M17.3042 45.1697C17.2963 45.5079 17.0577 45.7419 16.7315 45.7309C16.4166 45.721 16.1754 45.4536 16.1882 45.1289C16.2006 44.814 16.4753 44.5415 16.7699 44.5526C17.0702 44.5641 17.3121 44.8429 17.3042 45.1697Z" fill="#ED4135"/>
<path fill-rule="evenodd" clip-rule="evenodd" d="M14.2257 45.7458C14.2606 45.6753 14.3192 45.6194 14.3882 45.5815C14.5519 45.4913 14.7174 45.3779 14.8747 45.3889C15.1633 45.4091 15.3311 45.6539 15.3176 45.9818C15.3051 46.2884 15.1513 46.4816 14.8612 46.5272C14.5387 46.5775 14.3197 46.4195 14.2253 46.0986C14.1937 45.9913 14.2238 45.8638 14.2257 45.7458Z" fill="#ED4135"/>
<path fill-rule="evenodd" clip-rule="evenodd" d="M39.8389 50.237C39.5255 50.2465 39.2745 49.9998 39.2658 49.6727C39.2572 49.3511 39.5014 49.075 39.8039 49.0647C40.1034 49.0548 40.3701 49.319 40.3799 49.635C40.3901 49.9562 40.1459 50.2275 39.8389 50.237Z" fill="#ED4135"/>
<path fill-rule="evenodd" clip-rule="evenodd" d="M33.438 51.0557C33.4421 51.3393 33.2081 51.5979 32.9357 51.6098C32.6437 51.6233 32.38 51.371 32.3751 51.0743C32.3702 50.7836 32.6362 50.5108 32.9187 50.5167C33.193 50.5222 33.4338 50.7721 33.438 51.0557Z" fill="#ED4135"/>
<path fill-rule="evenodd" clip-rule="evenodd" d="M47.8278 50.8412C48.0915 50.8309 48.3263 51.0602 48.3327 51.3346C48.3387 51.6039 48.1073 51.8562 47.8466 51.8483C47.5606 51.8396 47.3985 51.6681 47.3695 51.3762C47.342 51.097 47.5625 50.8515 47.8278 50.8412Z" fill="#ED4135"/>
<path fill-rule="evenodd" clip-rule="evenodd" d="M21.2199 46.0304C21.069 46.0414 20.9525 46.0498 20.8462 46.0575C20.7725 46.0628 20.71 46.0278 20.7055 45.954C20.6988 45.8434 20.8215 45.753 20.9124 45.8163C21.0098 45.8841 21.1023 45.9486 21.2199 46.0304Z" fill="#ED4135"/>
</svg>
