<svg width="24" height="23" viewBox="0 0 24 23" fill="none" xmlns="http://www.w3.org/2000/svg">
<path d="M5.75125 22.5C4.98758 22.5 4.33817 22.2327 3.803 21.6982C3.26767 21.1637 3 20.5147 3 19.7512C3 18.9876 3.26742 18.3382 3.80225 17.803C4.33692 17.2677 4.98625 17 5.75025 17C5.96425 17 6.17442 17.0266 6.38075 17.0798C6.58725 17.1331 6.78217 17.2046 6.9655 17.2943L8.948 14.827C8.53267 14.3743 8.24617 13.8679 8.0885 13.3077C7.93083 12.7474 7.89875 12.1839 7.99225 11.6173L5.1115 10.6635C4.86017 11.0673 4.52975 11.391 4.12025 11.6345C3.71075 11.8782 3.254 12 2.75 12C1.98617 12 1.33683 11.7327 0.802 11.1982C0.267333 10.6637 0 10.0147 0 9.25125C0 8.48758 0.26725 7.83817 0.80175 7.303C1.33625 6.76767 1.98525 6.5 2.74875 6.5C3.51242 6.5 4.16183 6.76733 4.697 7.302C5.23233 7.83683 5.5 8.48617 5.5 9.25C5.5 9.309 5.49842 9.35833 5.49525 9.398C5.49192 9.43783 5.49025 9.47758 5.49025 9.51725L8.3615 10.5155C8.63717 10.0052 9.01575 9.56733 9.49725 9.202C9.97858 8.83667 10.5308 8.60208 11.1538 8.49825V5.42875C10.5103 5.27758 9.99042 4.95225 9.59425 4.45275C9.19808 3.95342 9 3.3845 9 2.746C9 1.98583 9.26725 1.33817 9.80175 0.803C10.3363 0.267667 10.9853 0 11.7488 0C12.5124 0 13.1618 0.267334 13.697 0.802C14.2323 1.33683 14.5 1.98617 14.5 2.75C14.5 3.38583 14.2993 3.95342 13.898 4.45275C13.4968 4.95225 12.9796 5.27758 12.3463 5.42875V8.49825C12.9693 8.60208 13.5198 8.83667 13.998 9.202C14.4762 9.56733 14.8563 10.0052 15.1385 10.5155L18.0098 9.51725C18.0033 9.47108 18 9.42975 18 9.39325V9.25C18 8.48617 18.2673 7.83683 18.8018 7.302C19.3363 6.76733 19.9853 6.5 20.7488 6.5C21.5124 6.5 22.1618 6.76725 22.697 7.30175C23.2323 7.83625 23.5 8.48525 23.5 9.24875C23.5 10.0124 23.2327 10.6618 22.698 11.197C22.1632 11.7323 21.5138 12 20.75 12C20.248 12 19.7892 11.8782 19.3735 11.6345C18.9578 11.391 18.6295 11.0673 18.3885 10.6635L15.5078 11.6173C15.6013 12.1839 15.5692 12.7448 15.4115 13.3C15.2538 13.8552 14.9673 14.3609 14.552 14.8173L16.5345 17.2693C16.7178 17.1859 16.9128 17.1203 17.1193 17.0723C17.3256 17.0241 17.5357 17 17.7498 17C18.5138 17 19.1631 17.2673 19.6978 17.8018C20.2326 18.3363 20.5 18.9853 20.5 19.7488C20.5 20.5124 20.2327 21.1618 19.6982 21.697C19.1637 22.2323 18.5147 22.5 17.7512 22.5C16.9876 22.5 16.3382 22.2327 15.803 21.698C15.2677 21.1632 15 20.5138 15 19.75C15 19.4347 15.051 19.1312 15.153 18.8395C15.2548 18.5478 15.4071 18.2802 15.6098 18.0365L13.627 15.55C13.059 15.8885 12.4323 16.0578 11.747 16.0578C11.0618 16.0578 10.4321 15.8885 9.85775 15.55L7.89025 18.0365C8.08642 18.2802 8.23708 18.5478 8.34225 18.8395C8.44742 19.1312 8.5 19.4347 8.5 19.75C8.5 20.5138 8.23275 21.1632 7.69825 21.698C7.16375 22.2327 6.51475 22.5 5.75125 22.5ZM2.75 10.5C3.0975 10.5 3.39267 10.3785 3.6355 10.1355C3.8785 9.89267 4 9.5975 4 9.25C4 8.9025 3.8785 8.60733 3.6355 8.3645C3.39267 8.1215 3.0975 8 2.75 8C2.4025 8 2.10733 8.1215 1.8645 8.3645C1.6215 8.60733 1.5 8.9025 1.5 9.25C1.5 9.5975 1.6215 9.89267 1.8645 10.1355C2.10733 10.3785 2.4025 10.5 2.75 10.5ZM5.75 21C6.0975 21 6.39267 20.8785 6.6355 20.6355C6.8785 20.3927 7 20.0975 7 19.75C7 19.4025 6.8785 19.1073 6.6355 18.8645C6.39267 18.6215 6.0975 18.5 5.75 18.5C5.4025 18.5 5.10733 18.6215 4.8645 18.8645C4.6215 19.1073 4.5 19.4025 4.5 19.75C4.5 20.0975 4.6215 20.3927 4.8645 20.6355C5.10733 20.8785 5.4025 21 5.75 21ZM11.75 4C12.0975 4 12.3927 3.8785 12.6355 3.6355C12.8785 3.39267 13 3.0975 13 2.75C13 2.4025 12.8785 2.10733 12.6355 1.8645C12.3927 1.6215 12.0975 1.5 11.75 1.5C11.4025 1.5 11.1073 1.6215 10.8645 1.8645C10.6215 2.10733 10.5 2.4025 10.5 2.75C10.5 3.0975 10.6215 3.39267 10.8645 3.6355C11.1073 3.8785 11.4025 4 11.75 4ZM11.75 14.5577C12.3923 14.5577 12.9375 14.3337 13.3855 13.8855C13.8337 13.4375 14.0577 12.8923 14.0577 12.25C14.0577 11.6077 13.8337 11.0625 13.3855 10.6145C12.9375 10.1663 12.3923 9.94225 11.75 9.94225C11.1077 9.94225 10.5625 10.1663 10.1145 10.6145C9.66633 11.0625 9.44225 11.6077 9.44225 12.25C9.44225 12.8923 9.66633 13.4375 10.1145 13.8855C10.5625 14.3337 11.1077 14.5577 11.75 14.5577ZM17.75 21C18.0975 21 18.3927 20.8785 18.6355 20.6355C18.8785 20.3927 19 20.0975 19 19.75C19 19.4025 18.8785 19.1073 18.6355 18.8645C18.3927 18.6215 18.0975 18.5 17.75 18.5C17.4025 18.5 17.1073 18.6215 16.8645 18.8645C16.6215 19.1073 16.5 19.4025 16.5 19.75C16.5 20.0975 16.6215 20.3927 16.8645 20.6355C17.1073 20.8785 17.4025 21 17.75 21ZM20.75 10.5C21.0975 10.5 21.3927 10.3785 21.6355 10.1355C21.8785 9.89267 22 9.5975 22 9.25C22 8.9025 21.8785 8.60733 21.6355 8.3645C21.3927 8.1215 21.0975 8 20.75 8C20.4025 8 20.1073 8.1215 19.8645 8.3645C19.6215 8.60733 19.5 8.9025 19.5 9.25C19.5 9.5975 19.6215 9.89267 19.8645 10.1355C20.1073 10.3785 20.4025 10.5 20.75 10.5Z" fill="#554D4D"/>
</svg>
