<svg width="20" height="20" viewBox="0 0 20 20" fill="none" xmlns="http://www.w3.org/2000/svg">
<path fill-rule="evenodd" clip-rule="evenodd" d="M12.7492 0.7602L19.2236 7.25078C19.7032 7.73156 19.7032 8.57294 19.3435 9.05372C19.1037 9.29411 18.3843 9.77489 17.665 9.05372L16.9456 8.33254L12.5094 16.3857L13.7084 17.5876C14.188 18.0684 14.188 18.7896 13.7084 19.2704C13.4686 19.512 12.6293 19.8714 12.0298 19.2704L7.23399 14.4625L2.79783 18.911L1.11928 17.227L5.43555 12.7798L2.55804 9.89509L0.759591 8.09215C0.280006 7.61137 0.280006 6.89019 0.759591 6.40941C1.23918 5.92863 1.95855 5.92863 2.43814 6.40941L3.6371 7.61137L11.79 3.16412L11.0707 2.44294C10.5911 1.96216 10.5911 1.24098 11.0707 0.7602C11.5503 0.279417 12.2696 0.279417 12.7492 0.7602Z" fill="#444444"/>
</svg>
