<svg width="20" height="15" viewBox="0 0 20 15" fill="none" xmlns="http://www.w3.org/2000/svg">
<path d="M5 14.6155V12.3923C5 11.8769 5.133 11.417 5.399 11.0125C5.665 10.608 6.02025 10.2933 6.46475 10.0685C7.41508 9.60367 8.37067 9.24525 9.3315 8.99325C10.2925 8.74142 11.3486 8.6155 12.4998 8.6155C13.6511 8.6155 14.7072 8.74142 15.668 8.99325C16.629 9.24525 17.5847 9.60367 18.535 10.0685C18.9795 10.2933 19.3348 10.608 19.6008 11.0125C19.8668 11.417 19.9998 11.8769 19.9998 12.3923V14.6155H5ZM12.4998 7C11.5373 7 10.7133 6.65733 10.028 5.972C9.34267 5.2865 9 4.4625 9 3.5C9 2.5375 9.34267 1.71358 10.028 1.02825C10.7133 0.34275 11.5373 0 12.4998 0C13.4623 0 14.2863 0.34275 14.9718 1.02825C15.6571 1.71358 15.9998 2.5375 15.9998 3.5C15.9998 4.4625 15.6571 5.2865 14.9718 5.972C14.2863 6.65733 13.4623 7 12.4998 7ZM6.49975 13.1155H18.4998V12.3923C18.4998 12.1834 18.4475 11.9976 18.343 11.8348C18.2387 11.6719 18.073 11.5296 17.846 11.4078C17.023 10.9834 16.1756 10.6619 15.3038 10.4433C14.4319 10.2248 13.4973 10.1155 12.4998 10.1155C11.5024 10.1155 10.5678 10.2248 9.696 10.4433C8.82417 10.6619 7.97675 10.9834 7.15375 11.4078C6.92675 11.5296 6.761 11.6719 6.6565 11.8348C6.552 11.9976 6.49975 12.1834 6.49975 12.3923V13.1155ZM12.4998 5.5C13.0498 5.5 13.5206 5.30417 13.9123 4.9125C14.3039 4.52083 14.4998 4.05 14.4998 3.5C14.4998 2.95 14.3039 2.47917 13.9123 2.0875C13.5206 1.69583 13.0498 1.5 12.4998 1.5C11.9498 1.5 11.4789 1.69583 11.0873 2.0875C10.6956 2.47917 10.4998 2.95 10.4998 3.5C10.4998 4.05 10.6956 4.52083 11.0873 4.9125C11.4789 5.30417 11.9498 5.5 12.4998 5.5Z" fill="#554D4D"/>
<path d="M3.40606 14.6155V12.2692C3.40606 11.6129 3.56673 10.9873 3.88806 10.3925C4.20956 9.79783 4.66556 9.28758 5.25606 8.86175C4.58556 8.96175 3.94898 9.1165 3.34631 9.326C2.74381 9.53567 2.16881 9.78342 1.62131 10.0693C1.10464 10.3449 0.705644 10.6698 0.424311 11.044C0.142978 11.418 0.00231171 11.8264 0.00231171 12.2692V14.6155H3.40606ZM4.27156 3.5C4.27156 4.4625 4.61423 5.2865 5.29956 5.972C5.98489 6.65733 6.80881 7 7.77131 7C7.88415 7 8.02773 6.98717 8.20206 6.9615C8.37656 6.93583 8.52015 6.90767 8.63281 6.877C8.23848 6.40283 7.9354 5.87683 7.72356 5.299C7.5119 4.72117 7.40606 4.12117 7.40606 3.499C7.40606 2.87667 7.51406 2.27892 7.73006 1.70575C7.94606 1.13275 8.24698 0.60525 8.63281 0.12325C8.48931 0.0719165 8.34573 0.0385832 8.20206 0.0232498C8.05856 0.00774982 7.91498 0 7.77131 0C6.80881 0 5.98489 0.34275 5.29956 1.02825C4.61423 1.71358 4.27156 2.5375 4.27156 3.5Z" fill="#554D4D"/>
</svg>
